<?xml version="1.0" standalone="no"?>
<!DOCTYPE svg PUBLIC "-//W3C//DTD SVG 20010904//EN"
 "http://www.w3.org/TR/2001/REC-SVG-20010904/DTD/svg10.dtd">
<svg version="1.0" xmlns="http://www.w3.org/2000/svg"
 width="1000.000000pt" height="1000.000000pt" viewBox="0 0 1000.000000 1000.000000"
 preserveAspectRatio="xMidYMid meet">
<metadata>
Created by potrace 1.16, written by Peter Selinger 2001-2019
</metadata>
<g transform="translate(0.000000,1000.000000) scale(0.100000,-0.100000)"
fill="#000000" stroke="none">
<path d="M4030 9503 c0 -16 11 -75 24 -129 27 -113 52 -245 48 -258 -2 -4 1
-13 6 -20 8 -10 25 -81 36 -151 5 -32 18 -90 36 -165 5 -25 13 -61 16 -80 3
-19 11 -57 19 -85 7 -27 16 -70 20 -95 6 -47 20 -79 30 -69 5 6 -33 187 -59
284 -8 28 -24 102 -36 165 -11 63 -30 156 -42 205 -20 88 -62 289 -77 373 -10
52 -21 66 -21 25z"/>
<path d="M4344 9516 c-6 -15 4 -102 26 -241 5 -27 14 -88 20 -135 6 -47 19
-139 30 -205 28 -181 32 -207 36 -250 12 -121 23 -196 33 -212 14 -25 14 -9
-4 112 -9 57 -15 107 -13 112 1 4 -3 31 -9 58 -7 28 -11 57 -10 65 0 8 -2 31
-5 50 -4 19 -12 69 -17 110 -36 252 -43 300 -52 345 -5 28 -13 84 -16 125 -6
81 -9 92 -19 66z"/>
<path d="M4645 9437 c3 -54 7 -108 10 -120 3 -12 9 -112 15 -222 6 -110 13
-220 15 -245 4 -42 12 -162 19 -275 12 -188 19 -266 27 -270 9 -6 7 67 -10
290 -6 83 -13 184 -15 225 -4 68 -19 280 -31 450 -3 36 -8 106 -11 155 -3 50
-10 94 -15 100 -6 6 -8 -27 -4 -88z"/>
<path d="M5235 9413 c-5 -65 -9 -140 -10 -168 -2 -49 -11 -167 -20 -275 -3
-30 -8 -100 -10 -155 -3 -55 -12 -174 -20 -265 -14 -164 -19 -263 -17 -309 3
-46 12 -15 17 65 10 134 24 325 30 399 4 39 7 97 9 130 1 33 12 197 24 365 25
353 24 330 13 330 -4 0 -12 -53 -16 -117z"/>
<path d="M5546 9508 c-3 -13 -12 -75 -20 -138 -9 -63 -22 -162 -30 -220 -25
-178 -47 -340 -51 -373 -2 -18 -11 -79 -20 -137 -9 -58 -22 -152 -30 -210 -8
-58 -22 -154 -31 -215 -26 -174 -33 -226 -39 -290 -4 -33 -8 -62 -10 -65 -2
-4 -11 -67 -20 -141 -9 -74 -20 -150 -25 -169 -14 -58 -23 -160 -13 -160 11 0
41 187 68 425 2 17 8 64 14 105 6 41 13 91 15 110 3 19 10 67 16 105 6 39 13
86 15 105 6 44 31 224 44 315 6 39 13 83 16 99 11 52 26 170 34 256 4 47 10
90 14 96 3 6 11 53 16 105 6 52 18 137 26 189 8 52 17 121 20 153 3 32 7 63
11 68 3 5 1 9 -5 9 -6 0 -13 -10 -15 -22z"/>
<path d="M8558 9506 c-16 -12 -28 -27 -28 -33 0 -6 -3 -13 -8 -15 -9 -4 -165
-185 -265 -308 -43 -52 -99 -120 -125 -151 -26 -31 -63 -76 -82 -99 -19 -23
-55 -64 -80 -90 -25 -27 -52 -59 -60 -71 -8 -12 -29 -39 -45 -58 -49 -58 -61
-75 -49 -70 6 2 40 38 75 79 35 41 71 82 79 90 9 8 25 27 35 41 11 15 99 120
195 233 96 114 195 231 219 259 24 29 62 74 85 101 22 27 45 56 50 65 5 9 17
21 25 28 9 6 14 14 11 16 -3 3 -17 -5 -32 -17z"/>
<path d="M2291 9446 c27 -41 49 -79 49 -83 0 -4 18 -30 40 -58 22 -27 40 -55
40 -61 0 -6 18 -36 40 -67 22 -30 40 -58 40 -62 0 -4 13 -25 28 -48 15 -23 33
-51 40 -62 6 -11 26 -45 44 -75 17 -30 47 -76 65 -101 18 -26 33 -49 33 -53 0
-3 21 -38 47 -78 27 -40 50 -77 53 -83 3 -5 24 -39 48 -74 23 -35 42 -68 42
-72 0 -4 24 -43 53 -86 30 -43 62 -94 72 -113 9 -19 25 -44 35 -55 10 -11 30
-42 44 -69 15 -27 38 -63 50 -80 13 -17 53 -80 90 -141 36 -60 86 -141 111
-180 25 -38 51 -81 57 -95 7 -14 18 -29 25 -35 6 -5 22 -30 35 -55 14 -25 46
-80 74 -122 95 -150 169 -269 186 -300 16 -29 56 -75 46 -53 -2 6 -10 25 -17
43 -7 17 -16 32 -20 32 -5 0 -39 52 -77 116 -38 63 -81 134 -96 157 -15 23
-39 62 -53 87 -64 110 -82 140 -117 188 -21 29 -38 54 -38 57 0 2 -16 29 -35
59 -19 30 -35 58 -35 62 0 3 -10 19 -22 34 -13 15 -36 51 -53 80 -16 29 -48
79 -70 112 -54 81 -62 94 -119 190 -28 46 -75 121 -105 168 -30 47 -64 101
-75 121 -25 42 -85 137 -142 224 -23 34 -53 82 -67 106 -13 24 -47 80 -76 124
-28 44 -65 103 -81 130 -17 28 -51 82 -75 120 -25 39 -66 105 -92 148 -26 42
-52 77 -59 77 -7 0 10 -34 37 -74z"/>
<path d="M2650 9512 c0 -4 11 -23 23 -42 13 -19 37 -64 52 -100 16 -36 39 -81
50 -100 12 -19 46 -80 74 -135 29 -55 79 -147 112 -205 32 -58 66 -121 75
-140 19 -41 28 -59 62 -120 13 -25 42 -79 63 -120 22 -41 64 -122 95 -180 30
-58 77 -148 104 -200 27 -52 65 -122 84 -155 18 -33 57 -105 86 -160 29 -55
58 -107 65 -115 7 -8 16 -26 20 -40 4 -14 18 -41 30 -60 12 -19 61 -111 109
-205 48 -93 92 -171 97 -173 5 -2 9 -12 9 -21 0 -10 12 -36 27 -57 42 -62 116
-215 106 -223 -4 -3 -25 -21 -45 -40 l-37 -34 -50 79 c-28 43 -53 84 -55 89
-2 6 -7 7 -11 3 -5 -5 -1 -16 8 -26 10 -10 17 -22 17 -27 0 -4 18 -36 39 -70
l40 -62 -45 -43 c-24 -24 -45 -42 -47 -39 -2 2 -23 33 -48 69 -24 36 -47 66
-51 68 -4 2 -22 27 -40 55 -18 29 -40 58 -50 65 -10 7 -18 19 -18 26 0 7 -9
21 -20 31 -11 10 -20 24 -20 30 0 7 -7 18 -15 25 -8 7 -47 57 -87 112 -40 55
-92 125 -115 156 -23 31 -74 104 -114 162 -40 58 -84 119 -98 136 -50 60 -61
74 -61 79 0 9 -71 108 -96 136 -13 14 -24 29 -24 33 0 5 -11 22 -25 40 -65 83
-93 119 -171 226 -46 63 -96 133 -110 155 -15 22 -42 58 -61 79 -18 22 -33 44
-33 50 0 5 -18 31 -40 57 -22 26 -40 51 -40 54 0 4 -20 30 -45 58 -25 29 -45
57 -45 63 0 7 -7 14 -15 18 -8 3 -15 12 -15 21 0 8 -4 15 -10 15 -17 0 -12 -8
50 -91 33 -44 60 -82 60 -85 0 -3 24 -36 53 -74 28 -38 70 -94 92 -125 22 -30
54 -73 70 -95 17 -22 50 -69 75 -105 25 -36 68 -94 95 -129 28 -35 77 -103
110 -151 33 -48 71 -102 85 -121 164 -220 277 -380 294 -413 9 -16 22 -34 29
-38 11 -7 78 -96 212 -283 21 -30 116 -159 177 -244 62 -84 61 -78 17 -127
-34 -38 -40 -42 -51 -28 -57 69 -174 208 -230 270 -37 42 -68 79 -68 83 0 7
-29 42 -91 111 -25 27 -81 93 -124 145 -92 111 -93 113 -141 165 -20 22 -63
74 -94 115 -32 41 -69 86 -83 100 -13 14 -40 46 -59 70 -19 25 -55 68 -81 95
-26 28 -47 53 -47 58 0 4 -8 15 -17 25 -23 24 -77 86 -128 148 -22 26 -72 84
-110 128 -39 45 -88 103 -110 131 -22 27 -47 57 -55 67 -8 9 -31 35 -50 58
-19 23 -44 51 -55 64 -11 12 -31 38 -45 56 -23 31 -130 157 -203 240 -17 19
-66 78 -108 130 -82 102 -140 162 -121 125 6 -12 21 -32 34 -45 13 -14 39 -45
58 -70 18 -25 46 -58 61 -73 15 -15 38 -42 51 -59 23 -30 53 -65 144 -168 27
-30 60 -70 73 -88 13 -19 39 -50 57 -70 19 -21 51 -59 72 -85 46 -59 258 -311
335 -398 12 -14 41 -47 62 -74 22 -27 47 -57 55 -66 8 -9 29 -33 45 -55 17
-21 46 -56 66 -78 20 -23 53 -63 73 -91 21 -27 46 -57 55 -65 10 -8 46 -51 82
-95 35 -44 73 -89 84 -100 11 -12 40 -45 65 -75 24 -30 48 -56 52 -58 5 -2 8
-8 8 -14 0 -5 20 -30 44 -56 39 -43 164 -192 241 -288 17 -21 50 -61 75 -89
72 -83 125 -146 128 -155 5 -12 -49 -90 -61 -90 -6 0 -76 68 -156 152 -170
176 -248 257 -415 428 -66 69 -227 235 -356 369 -129 134 -275 285 -325 335
-131 134 -328 338 -418 434 -43 46 -81 81 -85 78 -7 -7 22 -38 205 -226 187
-192 295 -304 478 -494 88 -92 205 -213 260 -270 331 -340 768 -796 782 -816
15 -21 15 -26 -8 -66 -13 -24 -27 -44 -31 -44 -4 0 -31 22 -60 48 -29 26 -75
68 -103 92 -27 25 -101 93 -165 151 -63 58 -128 116 -144 130 -16 13 -34 29
-40 35 -6 5 -45 39 -86 74 -41 35 -78 69 -82 74 -4 6 -9 8 -13 5 -5 -6 35 -45
165 -159 86 -76 156 -139 215 -195 23 -22 79 -74 125 -115 46 -41 106 -96 133
-121 l50 -46 -23 -52 c-21 -45 -40 -66 -40 -43 0 5 -18 21 -41 38 -23 16 -70
53 -105 82 -35 28 -68 52 -73 52 -5 0 -11 4 -13 9 -1 4 -43 39 -93 76 -98 74
-153 119 -220 178 -23 20 -46 37 -50 37 -4 0 -22 12 -40 28 -144 119 -291 232
-304 232 -6 0 -11 4 -11 9 0 4 -17 20 -37 33 -21 14 -50 36 -64 49 -14 13 -59
49 -98 79 -40 30 -133 102 -206 160 -74 58 -155 121 -180 140 -26 19 -63 49
-83 66 -21 18 -80 65 -134 105 -53 41 -156 121 -230 179 -73 58 -145 114 -160
125 -80 60 -154 118 -158 124 -3 3 -27 22 -54 41 -26 19 -67 51 -90 71 -66 58
-157 121 -164 115 -6 -6 10 -21 58 -54 13 -9 72 -55 130 -101 58 -46 121 -94
140 -108 32 -21 61 -44 161 -125 19 -15 77 -61 129 -102 52 -41 102 -81 111
-89 8 -7 22 -17 30 -20 8 -4 49 -35 91 -70 42 -34 111 -89 153 -122 43 -33
106 -82 141 -110 35 -27 84 -66 110 -85 25 -19 85 -67 133 -106 47 -39 113
-90 146 -115 83 -61 167 -127 315 -244 69 -55 137 -108 152 -118 15 -9 73 -54
129 -100 55 -45 116 -93 135 -106 19 -13 34 -27 34 -31 0 -5 22 -22 48 -38 26
-16 54 -36 62 -43 8 -8 50 -41 94 -74 43 -33 85 -65 92 -71 8 -6 14 -19 14
-29 0 -31 -23 -85 -37 -85 -11 0 -275 174 -418 276 -27 19 -59 39 -70 44 -11
6 -65 42 -120 80 -55 39 -138 96 -185 126 -47 31 -103 69 -125 85 -22 15 -67
45 -100 65 -33 21 -86 57 -118 81 -33 25 -61 42 -64 39 -7 -7 16 -36 29 -36
10 0 47 -26 95 -67 14 -13 31 -23 37 -23 7 0 27 -13 46 -30 19 -16 40 -29 45
-30 6 0 26 -13 45 -28 19 -15 96 -68 170 -116 74 -49 151 -99 170 -112 19 -14
42 -29 50 -34 8 -5 49 -33 91 -62 85 -60 103 -72 142 -96 15 -9 60 -41 100
-69 40 -29 96 -67 124 -84 29 -17 56 -35 59 -40 5 -9 -14 -77 -27 -92 -7 -9
-149 62 -180 89 -8 8 -19 14 -24 14 -5 0 -16 6 -24 14 -9 8 -43 28 -76 46
-133 71 -173 94 -230 130 -33 21 -79 48 -102 61 -23 13 -97 56 -165 95 -68 38
-134 75 -148 82 -14 7 -46 25 -72 41 -25 16 -66 40 -90 54 -23 13 -63 36 -88
51 -54 31 -70 33 -45 6 10 -11 23 -20 30 -20 6 0 31 -13 56 -28 40 -26 77 -47
204 -117 50 -27 90 -50 188 -109 43 -25 80 -46 82 -46 2 0 24 -13 48 -30 25
-16 48 -30 52 -30 3 0 25 -13 48 -29 23 -15 75 -46 114 -67 124 -66 197 -109
293 -170 27 -17 67 -39 90 -49 40 -18 41 -20 35 -54 -4 -20 -8 -43 -9 -50 -2
-8 -7 -16 -12 -18 -8 -3 -146 64 -260 125 -10 6 -46 23 -79 38 -33 15 -159 76
-279 136 -121 59 -229 111 -240 114 -18 6 -19 5 -7 -10 7 -9 18 -16 23 -16 8
0 243 -115 324 -158 11 -6 64 -31 119 -57 55 -26 107 -51 115 -56 8 -5 27 -14
41 -19 14 -6 50 -24 80 -41 30 -16 77 -40 105 -53 28 -13 53 -28 55 -32 3 -5
2 -30 -1 -55 l-5 -47 -70 30 c-38 16 -78 34 -87 39 -10 5 -23 9 -30 9 -7 0
-35 11 -63 25 -27 13 -57 25 -65 25 -9 0 -24 6 -35 13 -11 7 -47 23 -80 36
-116 44 -160 63 -169 72 -6 5 -16 9 -23 9 -7 0 -35 9 -61 21 -72 32 -84 37
-127 50 -22 6 -44 15 -50 19 -17 13 -176 72 -181 67 -3 -2 12 -12 33 -22 21
-9 51 -23 67 -31 16 -8 33 -14 38 -14 5 0 34 -11 64 -25 30 -14 58 -25 62 -25
5 0 32 -11 60 -25 29 -14 57 -25 63 -25 7 0 33 -10 58 -21 25 -12 55 -25 66
-29 11 -5 40 -17 65 -28 25 -11 61 -25 80 -32 39 -14 82 -32 134 -55 19 -8 40
-15 48 -15 8 0 18 -4 24 -8 10 -9 111 -53 129 -56 39 -7 55 -28 55 -71 0 -48
-8 -53 -52 -36 -13 5 -70 24 -128 41 -115 35 -214 67 -245 80 -11 5 -58 20
-105 34 -47 14 -155 48 -239 76 -84 27 -161 50 -170 50 -34 -1 25 -23 228 -87
113 -35 213 -67 221 -70 8 -4 20 -7 25 -8 6 -1 28 -9 50 -19 22 -10 72 -26
110 -36 39 -11 108 -32 155 -48 47 -16 98 -33 115 -38 24 -8 31 -16 36 -46 8
-54 -1 -64 -48 -50 -40 12 -295 74 -403 99 -36 8 -92 23 -125 33 -33 11 -78
22 -100 25 -22 3 -58 12 -80 20 -22 7 -60 17 -85 23 -169 39 -263 63 -326 82
-17 6 -44 12 -60 14 -16 3 -39 8 -51 11 -14 5 -23 3 -23 -4 0 -6 12 -13 28
-16 15 -3 50 -12 77 -20 28 -8 84 -21 125 -30 41 -8 134 -31 205 -50 138 -38
224 -60 290 -75 61 -14 114 -27 180 -45 33 -9 85 -22 115 -30 30 -7 81 -20
113 -29 32 -9 68 -16 80 -16 13 0 27 -4 33 -9 5 -5 20 -11 34 -13 20 -2 26
-11 33 -46 5 -24 7 -45 5 -47 -2 -3 -44 3 -93 11 -50 9 -101 18 -115 19 -23 3
-60 10 -295 51 -150 26 -198 35 -244 45 -73 16 -147 22 -136 11 9 -10 122 -31
360 -68 49 -8 96 -16 105 -19 18 -5 209 -38 326 -55 45 -7 86 -15 92 -19 6 -4
14 -26 18 -50 l7 -44 -49 8 c-27 4 -62 9 -79 10 -16 2 -75 9 -130 15 -55 6
-111 11 -125 11 -13 -1 -74 5 -135 13 -109 15 -174 21 -310 31 -38 3 -81 8
-95 11 -14 3 -63 10 -110 14 -175 18 -395 40 -399 40 -3 0 -1 -4 5 -10 5 -5
46 -12 89 -15 44 -3 87 -7 95 -10 8 -2 71 -9 140 -15 139 -11 178 -16 218 -24
15 -4 146 -18 292 -32 146 -14 341 -33 435 -42 l169 -17 7 -31 c3 -17 9 -37
14 -44 6 -10 -43 -11 -256 -6 -145 4 -282 9 -304 11 -92 10 -436 15 -431 6 3
-5 52 -10 107 -10 56 -1 104 -3 108 -5 3 -2 119 -7 256 -12 138 -4 277 -8 310
-9 33 -2 95 -3 137 -4 l78 -1 20 -39 c13 -26 16 -42 9 -46 -7 -5 -5 -11 4 -18
8 -7 22 -24 31 -39 17 -25 16 -27 -3 -37 -11 -6 -30 -10 -43 -10 -33 1 -152
-10 -223 -21 -33 -5 -94 -12 -135 -15 -129 -11 -163 -15 -240 -25 -41 -5 -117
-12 -167 -16 -51 -4 -93 -11 -93 -17 0 -6 22 -7 58 -3 31 4 66 7 77 8 11 0 56
5 100 9 44 5 107 11 140 14 33 3 143 14 245 25 335 35 305 35 330 0 12 -17 21
-32 19 -34 -7 -5 -120 -28 -231 -46 -166 -27 -346 -58 -407 -71 l-53 -11 -39
41 -40 41 -79 0 c-71 0 -85 -3 -128 -30 -27 -16 -53 -30 -58 -30 -16 -1 -54
-38 -69 -66 -14 -27 -22 -30 -166 -56 -83 -15 -155 -30 -158 -34 -14 -14 243
22 293 42 17 6 18 4 12 -17 -4 -13 -11 -51 -17 -83 -5 -33 -12 -63 -15 -68 -3
-4 -22 -8 -43 -8 -20 0 -41 -4 -47 -8 -5 -5 -40 -17 -79 -26 -38 -9 -92 -23
-120 -31 -78 -22 -138 -36 -168 -39 -15 -2 -31 -6 -34 -10 -16 -16 11 -15 88
4 46 12 91 23 99 24 8 1 22 5 30 8 8 3 47 13 85 23 39 9 93 23 122 30 28 7 54
11 57 8 9 -10 -57 -94 -99 -126 -22 -17 -60 -50 -83 -73 -32 -30 -63 -47 -115
-63 -40 -12 -87 -29 -105 -37 -18 -8 -40 -14 -50 -14 -9 -1 -35 -9 -57 -20
-22 -11 -49 -20 -60 -20 -11 0 -31 -7 -45 -15 -14 -8 -36 -15 -50 -15 -26 0
-58 -16 -50 -24 5 -4 80 14 135 33 17 6 73 25 125 42 52 17 104 35 115 39 61
25 87 15 40 -16 -14 -9 -25 -23 -25 -30 0 -8 -4 -14 -9 -14 -11 0 -93 -127
-106 -165 -8 -23 -21 -33 -60 -47 -27 -10 -63 -24 -80 -32 -16 -9 -65 -28
-107 -43 -46 -16 -78 -33 -78 -41 0 -8 6 -12 13 -9 6 3 37 15 67 27 59 24 129
55 172 77 14 7 29 13 32 13 10 0 7 -37 -5 -64 -7 -14 -21 -62 -33 -108 -19
-75 -24 -85 -61 -110 -22 -15 -46 -27 -54 -28 -11 0 -129 -57 -231 -111 -8 -4
-49 -23 -90 -42 -95 -44 -200 -94 -222 -107 -10 -6 -26 -15 -35 -20 -10 -6
-25 -13 -33 -16 -8 -4 -50 -24 -93 -45 -43 -22 -82 -39 -88 -39 -14 0 -71 -41
-66 -47 4 -4 244 106 277 127 8 6 22 13 30 16 13 6 192 92 513 249 121 59 120
60 82 -50 -17 -50 -29 -69 -40 -67 -9 2 -20 -9 -28 -25 -15 -34 -46 -62 -69
-63 -26 0 -30 -17 -11 -46 17 -26 17 -28 -1 -38 -10 -6 -41 -28 -69 -49 -28
-20 -54 -37 -58 -37 -4 0 -31 -16 -60 -36 -30 -20 -64 -40 -77 -45 -13 -5 -43
-23 -67 -39 -24 -17 -49 -30 -55 -30 -7 0 -32 -13 -57 -30 -24 -16 -47 -30
-51 -30 -4 -1 -38 -21 -77 -45 -38 -25 -80 -49 -92 -54 -26 -12 -39 -31 -21
-31 7 0 29 13 48 29 19 15 52 33 72 40 20 7 38 15 40 19 2 4 41 29 88 56 47
27 99 56 115 65 17 10 57 33 90 51 33 18 67 39 76 46 8 8 20 14 25 14 5 0 20
9 34 20 14 11 28 20 33 20 17 0 5 -46 -20 -72 -24 -25 -25 -30 -12 -44 9 -8
22 -12 30 -9 19 8 76 86 111 154 l30 56 -6 -40 c-3 -22 -6 -48 -6 -57 0 -10
-6 -18 -14 -18 -8 0 -25 -15 -37 -32 -13 -18 -36 -46 -51 -61 -15 -16 -28 -33
-28 -39 0 -5 -9 -21 -20 -35 -11 -14 -20 -34 -20 -43 0 -10 -7 -31 -15 -46 -8
-16 -15 -38 -15 -49 0 -13 -13 -27 -37 -40 -21 -11 -56 -33 -78 -50 -38 -30
-78 -58 -114 -80 -9 -6 -41 -27 -71 -47 -100 -68 -147 -99 -270 -182 -66 -44
-122 -88 -117 -93 3 -2 35 17 73 43 150 103 332 224 338 224 3 0 32 19 63 43
32 24 90 64 130 90 l72 46 6 -47 c4 -26 16 -80 26 -121 27 -104 25 -124 -12
-152 -17 -13 -59 -46 -93 -74 -34 -27 -77 -61 -95 -75 -48 -36 -208 -163 -263
-207 -26 -21 -45 -39 -43 -42 5 -4 405 299 467 355 15 13 32 24 36 24 8 0 14
-51 28 -240 1 -19 5 -48 9 -65 6 -27 0 -35 -66 -95 -39 -36 -85 -77 -101 -93
-16 -15 -32 -27 -35 -27 -9 0 -125 -122 -120 -127 3 -2 14 4 24 14 87 83 145
136 188 172 28 23 67 58 87 78 l37 36 20 -24 c11 -13 20 -27 21 -32 0 -12 51
-87 87 -131 18 -22 33 -48 33 -58 0 -10 5 -18 10 -18 6 0 15 -12 21 -27 6 -15
17 -41 24 -58 8 -16 24 -59 35 -95 12 -36 25 -69 30 -75 4 -5 10 -22 14 -36 6
-30 0 -39 -88 -134 -47 -50 -68 -85 -53 -85 2 0 37 39 77 86 l74 86 18 -22
c10 -12 18 -18 19 -14 0 5 5 -2 10 -15 l10 -25 20 33 c19 31 21 32 42 18 20
-13 26 -13 42 -1 23 17 55 18 55 2 0 -29 -25 -78 -41 -78 -21 0 -66 -55 -74
-91 -4 -19 -13 -29 -25 -29 -11 0 -20 -10 -24 -24 -5 -19 -18 -28 -61 -40 -29
-9 -57 -21 -61 -27 -9 -15 35 -59 52 -52 8 3 14 1 14 -5 0 -5 9 -12 21 -15 25
-7 20 -32 -6 -32 -11 0 -34 -20 -52 -43 -26 -34 -33 -53 -33 -87 0 -26 -6 -50
-15 -59 -9 -9 -15 -24 -13 -33 2 -12 -4 -19 -18 -21 -18 -3 -22 -12 -28 -60
-4 -31 -13 -63 -21 -72 -18 -20 -45 -173 -60 -335 -9 -99 -14 -115 -43 -126
-37 -14 -65 13 -49 49 9 20 9 26 -1 30 -7 2 -19 10 -27 19 -13 13 -16 11 -27
-13 -10 -22 -10 -28 0 -32 15 -5 44 -71 36 -83 -9 -14 -31 -10 -38 7 -3 9 -6
29 -6 45 0 19 -5 29 -15 29 -8 0 -15 8 -15 18 0 9 -10 22 -22 27 -26 12 -36
35 -14 35 8 0 20 9 26 20 16 29 -3 25 -40 -9 -29 -26 -32 -33 -28 -77 3 -42 0
-49 -17 -52 -11 -2 -28 -11 -37 -19 -9 -8 -22 -12 -28 -8 -6 4 -17 1 -25 -5
-21 -17 -47 -4 -43 21 4 29 35 49 47 30 6 -9 10 -10 16 -2 11 19 14 84 4 103
-6 11 -1 30 17 62 31 55 36 59 59 42 14 -10 15 -17 7 -33 -14 -26 -4 -37 15
-18 8 8 22 15 31 15 12 0 17 10 19 35 2 41 -2 43 -28 13 l-18 -23 -1 23 c0 13
-6 22 -15 22 -13 0 -14 4 -5 21 17 31 43 59 51 54 4 -3 13 2 20 11 10 13 10
17 -2 25 -13 8 -42 13 -65 10 -7 -1 -24 3 -39 9 -22 8 -26 15 -21 34 3 14 3
32 0 40 -7 17 -34 22 -34 6 0 -5 5 -10 10 -10 12 0 13 -10 1 -29 -8 -12 -12
-12 -24 -2 -12 9 -17 9 -23 0 -5 -9 -16 -3 -35 21 -31 37 -59 35 -59 -4 0 -30
15 -42 24 -20 6 15 8 15 24 0 10 -9 25 -16 33 -16 20 0 41 -38 34 -61 -9 -26
11 -49 42 -49 30 0 40 -25 19 -49 -9 -10 -16 -25 -16 -34 0 -16 -40 -51 -48
-42 -2 2 6 20 18 39 15 26 19 40 12 52 -8 15 -11 12 -17 -14 -6 -32 -21 -49
-32 -39 -3 4 0 21 6 38 13 37 0 62 -21 41 -19 -19 -28 -14 -29 16 -1 24 -2 23
-13 -12 -14 -46 -24 -53 -89 -61 -33 -4 -47 -11 -47 -22 0 -15 12 -15 53 2 14
6 17 2 17 -21 0 -16 3 -39 6 -51 5 -17 2 -23 -9 -23 -29 0 -65 22 -71 43 -4
18 -8 16 -41 -18 -38 -41 -39 -68 -3 -63 19 2 23 -1 21 -20 -3 -25 0 -26 26
-12 15 8 22 3 37 -25 16 -31 17 -36 2 -52 -8 -10 -18 -30 -22 -46 -7 -28 -26
-38 -26 -14 0 24 -37 49 -59 42 -27 -8 -27 -35 -1 -35 11 0 20 -4 20 -10 0 -5
-4 -10 -10 -10 -5 0 -10 -6 -10 -14 0 -10 15 -13 62 -11 35 2 84 4 110 4 45 1
48 3 56 33 4 17 13 33 20 36 15 5 16 -34 1 -43 -5 -4 -8 -12 -6 -18 5 -15 516
-19 534 -5 7 6 19 6 30 0 18 -9 1119 -10 1126 -1 14 15 -9 82 -36 109 -17 16
-32 38 -34 48 -4 18 -31 214 -42 300 -4 29 -4 55 0 58 12 7 16 -7 23 -86 8
-88 23 -173 38 -215 18 -51 49 -115 59 -121 14 -8 11 34 -5 69 -7 18 -19 45
-25 61 -7 18 -12 78 -12 145 0 110 1 118 36 196 29 64 43 83 67 94 28 13 32
12 45 -4 7 -11 13 -24 13 -31 0 -7 2 -19 6 -27 4 -12 -5 -13 -48 -9 l-53 5 32
-27 c24 -20 38 -25 57 -20 30 7 56 -10 56 -35 0 -18 12 -46 80 -186 21 -44 38
-81 36 -82 -1 -2 -38 6 -81 17 -86 22 -140 26 -150 10 -4 -7 2 -9 18 -5 13 4
44 1 68 -6 24 -6 51 -12 59 -13 44 -6 137 -46 105 -46 -4 0 1 -10 12 -23 12
-12 31 -42 43 -67 36 -74 49 -97 65 -110 22 -18 42 2 23 21 -15 16 -58 112
-53 118 6 5 72 -69 83 -93 6 -12 13 -29 16 -40 5 -15 12 -17 44 -11 36 6 43
11 69 52 11 16 12 15 12 -13 1 -24 6 -33 23 -37 27 -8 38 -1 38 23 0 29 16 32
51 11 19 -12 42 -18 55 -15 14 4 23 0 28 -11 5 -14 14 -16 38 -11 18 3 35 11
38 17 4 6 5 66 3 133 -3 113 -2 125 18 150 12 15 23 25 25 23 3 -2 -2 -30 -11
-63 -17 -65 -19 -94 -7 -94 4 0 13 24 19 53 21 99 25 112 30 127 4 8 5 19 4
24 -1 5 5 43 14 85 39 182 66 310 74 358 17 91 32 131 55 138 19 7 19 8 3 12
-22 6 -22 11 16 183 36 164 46 206 70 285 12 39 20 88 18 110 -1 22 3 53 9 70
6 16 20 72 30 125 11 52 29 138 40 190 12 52 25 115 30 140 5 25 20 90 34 145
14 55 26 115 26 133 0 18 4 41 9 50 14 27 23 92 13 92 -12 0 -29 -61 -46 -160
-8 -41 -25 -126 -40 -189 -14 -63 -26 -127 -26 -142 0 -15 -4 -30 -9 -33 -4
-3 -11 -27 -14 -53 -3 -27 -22 -113 -41 -193 -20 -79 -36 -156 -36 -170 0 -14
-9 -56 -20 -95 -13 -50 -27 -77 -49 -97 -17 -16 -25 -28 -18 -31 8 -2 6 -9 -6
-21 -9 -10 -17 -21 -17 -25 0 -4 -25 -41 -55 -81 -31 -41 -67 -99 -81 -129
-19 -40 -28 -50 -35 -40 -7 11 -9 9 -9 -8 0 -27 -18 -40 -26 -18 -8 19 12 93
30 115 11 13 36 86 36 105 0 4 -6 2 -14 -4 -7 -6 -26 -50 -41 -97 -15 -47 -33
-88 -40 -90 -10 -4 -9 -13 1 -42 7 -20 13 -67 14 -104 0 -64 -2 -70 -34 -106
-40 -44 -60 -93 -87 -210 -10 -46 -21 -87 -24 -92 -4 -6 -19 -10 -36 -10 -29
0 -29 1 -23 43 4 23 10 47 15 52 4 6 20 56 35 110 58 218 73 272 87 315 8 25
22 70 31 100 9 30 28 96 42 145 15 50 29 102 31 117 9 48 -5 30 -23 -29 -9
-32 -25 -82 -35 -111 -11 -29 -19 -61 -19 -70 0 -27 -23 -72 -37 -72 -15 0
-17 -16 -4 -24 9 -6 -9 -99 -22 -112 -4 -4 -7 -16 -7 -26 0 -10 -8 -44 -18
-76 -18 -53 -33 -106 -53 -177 -5 -16 -17 -59 -28 -95 -11 -36 -24 -85 -31
-108 -11 -41 -12 -43 -29 -28 -16 15 -19 13 -34 -17 -46 -87 -63 -112 -80
-115 -14 -3 -17 4 -17 35 0 21 -16 85 -35 143 -20 58 -38 120 -40 138 -2 18
-6 36 -9 40 -3 5 7 39 20 78 46 127 85 239 99 280 7 23 21 57 31 75 9 19 21
48 25 64 13 47 68 207 83 240 7 17 19 46 26 65 6 19 16 44 20 55 5 11 20 54
35 95 14 41 29 84 34 95 11 27 41 129 41 141 -1 11 -29 -55 -60 -141 -12 -33
-33 -86 -46 -118 -13 -32 -24 -66 -24 -76 0 -10 -7 -24 -15 -31 -8 -7 -15 -23
-15 -37 0 -13 -8 -40 -19 -61 -10 -20 -24 -55 -30 -77 -11 -37 -31 -90 -52
-140 -4 -11 -20 -56 -34 -100 -15 -44 -30 -89 -34 -100 -17 -41 -39 -101 -51
-140 -6 -22 -19 -56 -27 -75 -16 -34 -16 -34 -25 -10 -5 13 -11 65 -14 114 -5
69 -2 101 10 135 9 24 16 57 16 73 0 29 43 177 62 211 13 25 5 31 -13 10 -21
-26 -69 -192 -82 -283 -3 -23 -4 -22 -21 15 -10 22 -22 54 -27 70 -4 17 -13
49 -20 73 -11 40 -9 48 21 115 57 128 60 135 60 144 0 4 9 19 20 33 11 14 20
31 20 37 0 7 23 60 50 117 28 57 50 109 50 114 0 6 7 23 15 39 24 47 65 141
65 150 0 4 11 28 24 53 31 59 40 90 27 90 -6 0 -11 -5 -11 -11 0 -5 -22 -57
-50 -115 -27 -58 -50 -109 -50 -114 0 -11 -40 -101 -109 -245 -27 -55 -70
-150 -96 -212 -27 -62 -51 -110 -55 -108 -4 2 -13 33 -20 67 -7 35 -23 86 -36
113 -12 28 -32 71 -43 96 l-21 45 21 40 c11 21 44 84 73 139 29 55 80 152 113
215 33 63 109 205 168 315 164 305 241 449 344 646 23 46 48 90 53 97 8 8 6
12 -4 12 -7 0 -19 -12 -25 -28 -7 -15 -26 -49 -42 -77 -17 -27 -33 -57 -36
-65 -4 -8 -11 -22 -16 -30 -5 -8 -14 -26 -19 -40 -6 -14 -15 -33 -20 -43 -20
-33 -72 -132 -112 -207 -21 -41 -43 -83 -48 -92 -77 -139 -166 -305 -169 -318
-2 -8 -11 -26 -21 -40 -9 -14 -39 -65 -65 -115 -118 -221 -135 -254 -166 -314
-38 -75 -39 -73 -59 65 -10 68 -17 91 -27 87 -7 -3 -13 -12 -13 -20 0 -8 4
-12 9 -9 5 3 9 -4 8 -17 0 -12 3 -41 7 -65 7 -35 5 -42 -9 -42 -15 0 -15 -3 2
-30 9 -16 21 -30 25 -30 23 0 4 -45 -85 -212 -26 -48 -47 -90 -47 -93 0 -18
24 14 49 63 72 144 95 182 104 179 6 -2 21 -34 33 -73 12 -38 28 -85 37 -104
8 -19 20 -67 26 -106 12 -69 11 -72 -17 -135 -16 -35 -41 -90 -56 -122 -14
-32 -26 -62 -26 -67 0 -6 -7 -10 -15 -10 -10 0 -15 10 -15 33 0 18 -4 37 -8
43 -5 5 -15 36 -22 69 -8 33 -15 52 -18 43 -6 -31 -17 -19 -37 45 -18 58 -20
60 -26 32 l-6 -30 -11 28 c-16 37 -15 47 3 47 22 0 18 25 -10 58 -14 17 -25
37 -25 45 0 9 -4 19 -10 22 -14 9 -13 3 9 -54 21 -52 19 -63 -7 -53 -15 5 -15
3 -4 -10 11 -14 11 -18 -1 -25 -9 -4 -17 -19 -19 -32 -1 -14 -8 -26 -14 -28
-17 -6 -24 69 -9 87 16 19 10 128 -11 188 -21 64 -19 101 9 111 12 5 23 8 25
6 3 -2 8 -58 12 -135 l2 -35 8 30 c3 17 6 100 5 185 l-1 155 33 46 c18 26 33
49 33 53 0 15 53 85 61 80 5 -3 9 6 9 19 0 14 7 30 15 37 8 7 15 18 15 25 0 6
14 31 30 54 17 22 60 90 96 149 35 59 75 121 87 139 34 50 73 114 97 160 12
24 26 43 30 43 5 0 23 28 40 63 18 34 46 82 64 107 47 67 78 122 71 128 -7 7
-8 6 -76 -105 -27 -45 -54 -85 -60 -88 -12 -8 -11 30 2 125 6 41 10 98 9 126
-1 52 6 64 84 160 14 18 26 35 26 39 0 4 15 25 33 48 17 22 39 51 47 63 8 12
39 56 67 98 29 42 53 80 53 85 0 5 6 11 13 14 8 3 30 30 51 61 20 30 41 58 46
61 6 3 10 10 10 16 0 18 -16 8 -34 -21 -9 -17 -28 -41 -40 -53 -13 -12 -51
-62 -85 -112 -34 -49 -89 -126 -121 -170 -32 -44 -80 -111 -106 -148 -26 -37
-48 -66 -49 -65 -2 2 -10 45 -19 96 -16 92 -16 93 6 122 12 17 24 30 28 30 3
0 23 24 45 53 38 51 58 76 189 229 36 42 66 80 66 83 0 19 -26 -5 -80 -72
-103 -128 -194 -233 -202 -233 -5 0 -8 -5 -8 -11 0 -18 -58 -80 -65 -69 -3 5
-9 48 -12 95 l-6 85 69 71 c38 39 111 113 163 165 51 52 91 97 89 100 -6 6
-38 -6 -38 -15 0 -3 -63 -71 -140 -150 -148 -153 -160 -158 -146 -68 7 44 63
167 76 167 4 0 49 40 101 90 52 49 99 89 106 90 6 0 14 8 18 18 3 11 17 24 30
30 14 6 25 16 25 22 0 5 5 10 11 10 6 0 32 21 58 48 25 26 56 54 67 62 12 9
61 52 108 97 87 82 99 87 134 60 15 -12 16 -27 1 -27 -6 0 -28 -19 -50 -42
-21 -24 -48 -53 -60 -66 -12 -12 -19 -26 -15 -30 4 -3 40 29 79 72 67 73 74
78 95 67 12 -6 22 -15 22 -20 0 -8 -36 -59 -50 -71 -3 -3 -39 -45 -79 -95 -41
-49 -84 -99 -96 -110 -12 -11 -44 -49 -70 -85 -26 -36 -51 -67 -55 -70 -14 -9
-70 -82 -70 -92 0 -17 58 48 127 143 12 17 51 61 85 98 35 38 101 114 147 170
46 55 88 101 95 101 6 0 17 -4 25 -9 11 -7 10 -16 -10 -47 -12 -22 -29 -43
-36 -47 -7 -4 -13 -15 -13 -23 0 -8 -7 -17 -15 -20 -8 -4 -15 -10 -15 -15 0
-6 -21 -38 -47 -73 -117 -154 -203 -279 -197 -286 3 -3 15 8 27 25 12 16 30
36 39 44 10 9 18 21 18 27 0 7 12 27 26 44 33 39 57 72 130 180 76 111 123
170 139 170 7 0 18 -7 25 -15 11 -13 6 -27 -32 -83 -25 -37 -58 -89 -74 -117
-15 -27 -31 -52 -34 -55 -11 -11 -48 -67 -65 -100 -10 -19 -21 -37 -24 -40 -3
-3 -11 -14 -18 -25 -7 -11 -29 -48 -50 -82 -20 -35 -41 -63 -45 -63 -4 0 -8
-9 -8 -21 0 -30 16 -15 53 48 18 30 42 71 55 91 12 21 25 44 29 52 3 8 12 22
20 31 7 9 43 65 81 126 106 175 141 223 162 223 10 0 21 -4 24 -8 3 -5 -17
-51 -44 -103 -27 -52 -65 -125 -84 -164 -19 -38 -54 -103 -76 -144 -22 -41
-38 -76 -35 -80 9 -8 41 49 214 384 47 89 62 104 91 85 13 -8 11 -17 -12 -62
-15 -29 -36 -77 -48 -106 -11 -29 -31 -74 -45 -100 -14 -26 -25 -51 -25 -56 0
-10 -38 -94 -81 -178 -16 -31 -29 -62 -29 -69 0 -20 27 9 40 44 7 18 24 57 37
87 14 30 31 71 40 90 8 19 28 62 44 95 16 33 46 101 67 150 32 75 42 90 60 90
12 0 23 -2 24 -5 2 -7 -54 -183 -62 -195 -4 -5 -19 -44 -33 -86 -14 -41 -44
-124 -67 -184 -57 -150 -67 -177 -100 -279 -17 -49 -34 -94 -39 -100 -5 -6
-12 -27 -16 -46 -4 -19 -11 -41 -16 -50 -4 -8 -22 -55 -39 -105 -34 -98 -47
-133 -78 -212 -11 -30 -16 -55 -11 -59 5 -3 11 1 14 8 20 55 99 279 107 303 5
17 16 44 24 62 8 17 14 37 14 45 0 7 6 22 13 33 7 11 30 72 51 135 33 99 79
228 107 295 5 11 25 67 45 125 81 233 111 310 119 310 4 0 14 -4 24 -10 20
-10 18 -22 -33 -193 -13 -45 -26 -93 -29 -107 -3 -14 -17 -59 -32 -100 -15
-41 -38 -115 -51 -165 -14 -49 -31 -115 -40 -145 -8 -30 -17 -66 -20 -80 -3
-14 -10 -34 -14 -45 -5 -11 -17 -49 -26 -85 -9 -36 -27 -98 -40 -139 -25 -77
-29 -101 -16 -101 7 0 26 58 63 195 11 44 25 91 30 105 5 14 12 38 15 54 3 16
16 61 29 99 14 39 25 77 25 86 0 14 33 127 70 241 34 104 58 185 81 278 20 82
25 92 45 92 13 0 25 -3 27 -7 5 -9 -21 -141 -46 -238 -8 -33 -25 -109 -37
-170 -12 -60 -31 -145 -41 -187 -11 -42 -24 -98 -29 -125 -8 -47 -24 -125 -55
-268 -8 -38 -17 -88 -21 -110 -3 -22 -15 -78 -26 -125 -11 -47 -20 -96 -20
-110 0 -14 -4 -29 -8 -35 -13 -18 -22 -85 -11 -85 6 0 13 10 16 23 10 40 115
560 130 642 8 44 19 96 24 115 17 58 63 262 72 315 16 96 28 156 38 188 5 17
16 61 23 97 12 60 15 65 42 68 23 3 27 0 23 -15 -3 -10 -13 -72 -22 -138 -9
-66 -23 -156 -31 -200 -8 -44 -14 -93 -14 -109 0 -17 -4 -55 -9 -85 -14 -82
-41 -264 -52 -356 -21 -175 -22 -190 -12 -180 8 8 37 199 68 437 6 54 57 412
72 520 16 108 19 117 41 121 l24 5 -5 -102 c-3 -55 -10 -171 -16 -256 -7 -85
-13 -184 -15 -220 -8 -123 -17 -235 -21 -260 -3 -14 -7 -73 -10 -131 -2 -58
-7 -113 -11 -122 -4 -12 -1 -17 10 -17 12 0 16 10 17 43 0 23 2 58 3 77 2 19
6 91 10 160 4 69 11 168 16 220 9 94 19 226 26 344 2 34 6 95 9 136 2 41 5 85
5 98 0 15 6 22 19 22 11 0 22 -4 26 -9 3 -6 6 -255 6 -555 0 -304 4 -546 9
-546 12 0 16 116 10 375 -3 127 -4 344 -2 482 l3 253 23 0 c28 0 31 -17 42
-207 4 -72 11 -123 17 -123 9 0 4 153 -9 283 -5 45 -4 47 19 47 23 0 25 -5 36
-82 7 -46 18 -123 26 -173 8 -49 19 -130 25 -180 6 -49 13 -99 14 -110 2 -11
13 -92 25 -180 11 -88 25 -180 30 -205 6 -25 13 -76 16 -115 7 -84 14 -115 26
-115 11 0 12 -12 -7 111 -8 57 -20 138 -24 179 -5 41 -16 120 -24 175 -8 55
-22 154 -31 220 -8 66 -24 176 -35 245 -11 69 -22 151 -26 183 -6 54 -6 57 15
57 13 0 25 -9 31 -22 9 -24 35 -146 44 -209 3 -20 8 -42 11 -50 3 -8 23 -102
46 -209 22 -107 45 -213 51 -235 5 -22 13 -62 17 -90 4 -27 12 -66 18 -85 7
-19 16 -62 22 -95 6 -33 18 -91 27 -130 20 -89 37 -167 58 -275 9 -47 24 -112
32 -145 9 -33 22 -94 29 -135 38 -207 51 -264 64 -268 9 -3 12 1 8 11 -3 8
-11 44 -17 78 -7 35 -20 100 -30 144 -18 82 -43 198 -61 295 -6 30 -15 66 -19
80 -4 14 -13 50 -19 80 -11 58 -48 235 -76 360 -9 41 -20 98 -26 125 -5 28
-23 113 -40 190 -17 77 -34 163 -38 190 -8 49 -23 117 -62 277 -23 94 -24 117
-3 125 24 9 32 -6 55 -97 12 -47 27 -94 34 -105 7 -11 15 -36 18 -55 3 -19 15
-66 27 -105 11 -38 25 -88 31 -110 5 -22 14 -49 19 -60 5 -11 14 -38 19 -60
11 -46 55 -202 63 -225 3 -8 11 -33 17 -55 6 -22 22 -80 37 -130 14 -49 34
-121 44 -160 10 -38 25 -95 34 -125 8 -30 24 -86 35 -125 41 -150 54 -190 62
-199 14 -15 11 8 -12 87 -11 39 -24 88 -29 107 -4 19 -14 58 -23 85 -17 52
-84 287 -118 410 -10 39 -28 102 -39 140 -11 39 -25 90 -32 115 -6 25 -28 101
-49 170 -39 130 -92 316 -110 385 -6 22 -15 48 -20 57 -16 31 -11 65 12 71 15
4 23 -1 31 -21 6 -15 19 -45 28 -67 10 -22 21 -55 25 -72 3 -18 11 -35 16 -38
5 -4 9 -15 9 -27 0 -11 6 -34 14 -51 8 -18 22 -54 31 -81 17 -53 113 -315 150
-411 13 -33 30 -82 39 -110 9 -27 20 -59 25 -70 5 -11 26 -67 47 -125 21 -58
41 -109 44 -115 4 -5 13 -30 20 -55 7 -25 17 -49 21 -55 4 -5 14 -32 22 -60 9
-27 37 -108 62 -180 26 -71 53 -150 61 -175 8 -25 19 -54 24 -65 14 -28 56
-145 87 -238 14 -42 29 -80 34 -83 5 -3 9 -14 9 -26 0 -11 7 -34 15 -51 22
-48 75 -216 75 -239 0 -11 9 -31 20 -45 11 -14 20 -33 20 -42 0 -10 4 -21 9
-27 4 -5 16 -31 26 -59 19 -56 19 -57 69 -180 20 -50 36 -96 36 -102 0 -9 15
-51 50 -138 5 -11 15 -40 23 -65 8 -25 27 -76 42 -115 15 -38 36 -97 47 -130
11 -33 24 -69 30 -81 7 -15 5 -35 -6 -70 -41 -135 -55 -182 -61 -212 -9 -42
-24 -37 -55 20 -43 79 -57 94 -70 81 -7 -6 -20 -9 -29 -6 -11 4 -10 1 4 -10
11 -9 25 -17 31 -17 20 0 98 -123 97 -155 0 -40 -28 -144 -42 -158 -6 -6 -11
-19 -11 -29 0 -25 -7 -23 -40 10 -17 17 -32 46 -37 73 -7 34 -13 45 -30 47
-17 3 -23 12 -28 52 -10 72 -13 170 -5 170 4 0 13 -26 20 -57 14 -66 30 -103
42 -103 10 0 12 -7 -17 84 -14 43 -23 82 -20 86 3 5 1 11 -5 15 -17 10 -11 21
18 32 l27 11 -30 1 c-28 1 -32 6 -44 48 -17 61 -47 165 -66 223 -8 25 -16 57
-19 71 -2 14 -11 47 -20 73 -9 26 -16 55 -16 66 0 10 -4 22 -10 25 -5 3 -10
19 -10 34 0 15 -4 31 -9 37 -5 5 -19 50 -31 99 -13 50 -28 101 -35 115 -7 14
-17 48 -23 75 -13 63 -73 280 -101 365 -11 36 -25 79 -31 95 -5 17 -18 66 -29
110 -11 44 -32 118 -47 165 -14 47 -37 128 -51 180 -25 94 -43 133 -43 94 0
-10 21 -89 46 -174 25 -85 48 -164 51 -175 3 -11 7 -27 11 -35 3 -8 14 -46 24
-85 10 -38 23 -86 29 -105 6 -19 13 -48 16 -65 3 -16 9 -34 13 -40 4 -5 17
-48 30 -95 13 -47 34 -121 47 -166 12 -44 23 -87 23 -95 0 -9 7 -30 16 -48 25
-50 10 -60 -20 -12 -15 24 -36 46 -47 48 -10 3 -19 9 -19 14 0 5 -9 9 -19 9
-11 0 -23 5 -26 10 -3 6 -14 10 -23 10 -15 -1 -14 -3 3 -16 11 -9 34 -22 51
-30 19 -8 34 -23 38 -38 4 -15 11 -23 19 -20 14 5 37 -34 37 -62 0 -9 9 -27
20 -41 11 -14 20 -34 20 -44 0 -10 5 -30 12 -44 10 -21 9 -29 -5 -43 -16 -15
-17 -14 -18 13 0 17 -3 24 -6 17 -5 -14 -32 23 -77 108 -30 56 -49 84 -98 144
-16 19 -28 38 -28 44 0 5 -6 15 -14 21 -8 7 -27 38 -42 69 -18 38 -29 51 -31
40 -3 -10 5 -31 16 -47 12 -16 21 -36 21 -45 0 -8 14 -31 30 -49 17 -19 30
-38 30 -42 0 -4 12 -18 26 -32 14 -13 24 -29 22 -35 -3 -7 7 -22 22 -34 23
-20 80 -117 80 -136 0 -4 11 -32 25 -63 31 -66 42 -115 27 -115 -6 0 -27 14
-47 31 -24 21 -35 26 -35 16 0 -8 16 -24 35 -36 19 -11 39 -31 44 -44 10 -27
22 -227 13 -227 -3 0 -17 10 -31 23 -25 22 -25 21 2 -11 14 -18 31 -51 37 -73
11 -39 12 -155 2 -206 l-5 -24 -26 23 c-14 14 -38 29 -53 36 -22 9 -28 21 -38
69 -6 32 -19 94 -30 138 -10 44 -26 118 -35 165 -9 47 -19 92 -22 100 -3 8 -7
26 -9 40 -2 14 -6 36 -9 49 -5 21 -3 23 22 19 15 -3 37 -8 48 -13 16 -5 15 -3
-5 14 -14 11 -37 21 -51 21 -23 0 -26 5 -36 57 -20 105 -44 217 -64 294 -10
42 -28 123 -39 180 -10 57 -28 145 -40 194 -19 82 -30 143 -47 247 -6 41 -23
52 -23 16 0 -13 7 -45 15 -72 8 -26 13 -52 10 -56 -2 -4 2 -31 10 -61 26 -101
54 -224 60 -264 15 -100 28 -171 35 -180 4 -5 10 -33 14 -61 3 -27 18 -95 32
-150 22 -85 32 -138 60 -298 3 -16 7 -33 10 -37 2 -4 16 -63 30 -131 34 -159
40 -187 49 -220 7 -26 5 -28 -21 -29 l-29 -1 26 -9 c24 -9 30 -21 49 -102 12
-51 24 -105 25 -122 4 -49 5 -51 14 -35 9 15 7 30 -22 158 -10 41 -11 64 -4
69 5 3 14 -2 19 -11 5 -9 15 -16 23 -16 7 0 23 -12 35 -27 21 -26 22 -36 17
-125 -8 -128 -1 -167 30 -174 30 -8 63 20 63 53 0 23 -19 34 -21 11 0 -7 -4
-4 -8 7 -4 11 -6 39 -3 62 2 24 0 49 -6 56 -11 13 -17 86 -14 165 2 48 18 53
38 13 7 -13 14 -18 18 -13 7 12 43 4 53 -12 4 -6 8 -27 10 -46 2 -44 9 -85 23
-141 6 -24 14 -54 17 -66 5 -22 0 -25 -63 -38 -25 -5 -31 -10 -27 -26 7 -24
15 -24 31 2 19 29 76 23 80 -9 3 -18 8 -22 25 -16 25 8 37 22 37 44 0 8 9 0
20 -18 16 -26 26 -32 52 -32 29 0 35 6 51 41 24 50 87 120 87 95 0 -18 -18
-58 -30 -66 -13 -9 -23 -70 -12 -70 15 0 42 29 42 45 0 12 57 112 80 140 6 8
27 15 46 17 19 2 33 8 32 13 -2 6 -5 9 -8 8 -3 -1 -19 -4 -35 -8 l-30 -6 25
15 c14 8 33 15 43 16 9 0 17 5 17 11 0 7 -11 8 -30 4 -32 -7 -39 5 -15 25 8 7
15 20 15 29 0 9 4 21 9 27 5 5 28 54 52 109 53 125 54 127 85 113 19 -9 28 -8
44 7 24 22 23 22 49 -38 11 -26 25 -47 31 -47 12 0 13 12 2 26 -10 11 -62 132
-62 144 0 4 12 10 28 12 15 3 34 8 43 12 15 6 16 -2 14 -76 -1 -46 1 -126 6
-178 8 -104 -1 -170 -33 -233 -11 -23 -18 -53 -16 -75 l3 -37 23 42 c22 41 48
133 58 203 3 19 9 49 14 65 5 17 12 56 16 87 3 32 10 55 16 52 5 -3 6 -13 4
-22 -3 -10 -15 -80 -25 -157 -28 -195 -31 -208 -51 -222 -10 -7 -26 -34 -36
-59 -15 -39 -15 -47 -3 -55 18 -11 46 -12 51 0 2 4 30 5 63 2 47 -6 1408 -7
1543 -2 30 1 32 3 22 22 -13 23 -6 54 10 44 5 -3 10 -22 10 -41 l0 -35 93 5
c50 3 103 5 117 5 19 1 21 4 12 13 -17 17 -15 26 5 24 25 -2 28 31 4 39 -27 8
-61 -11 -61 -36 0 -30 -18 -14 -41 37 -20 42 -20 45 -4 70 13 20 22 24 41 20
22 -6 24 -4 18 19 -6 24 -4 25 19 20 14 -4 28 -2 31 4 11 17 32 13 33 -6 1
-32 28 -123 35 -123 11 0 2 120 -11 133 -6 6 -11 17 -11 24 0 8 -9 11 -29 7
-24 -5 -33 -1 -52 25 l-22 30 -23 -24 c-27 -29 -80 -36 -70 -9 3 9 6 29 6 45
0 31 3 32 58 12 6 -3 12 1 12 9 0 10 -18 18 -57 24 -54 8 -59 11 -69 43 -10
32 -11 33 -18 10 -6 -23 -7 -23 -21 -5 -8 10 -21 16 -29 13 -12 -5 -13 -13 -5
-42 6 -20 8 -40 4 -43 -9 -9 -25 19 -25 46 0 28 -16 29 -23 0 -4 -13 0 -29 8
-38 15 -17 20 -40 9 -40 -11 0 -33 34 -34 51 0 9 -7 19 -15 23 -8 3 -15 15
-15 26 0 15 7 20 26 20 35 0 54 22 54 65 0 28 5 37 24 44 13 5 26 17 29 25 9
22 22 20 34 -6 l11 -23 13 28 c11 24 11 30 -2 38 -20 13 -24 12 -52 -17 -17
-17 -33 -24 -43 -20 -9 3 -22 2 -29 -4 -10 -8 -15 -8 -21 1 -4 7 1 18 11 25
16 12 16 14 2 20 -27 10 -39 -6 -33 -40 5 -27 2 -35 -16 -45 -13 -6 -37 -11
-53 -9 -32 2 -55 -7 -55 -23 0 -5 19 -28 41 -51 32 -33 38 -44 25 -46 -9 -2
-16 -10 -16 -18 0 -19 -16 -18 -24 1 -10 27 -22 16 -22 -20 0 -24 5 -35 15
-35 8 0 23 -8 34 -18 20 -17 20 -16 14 15 -5 26 -2 35 13 43 17 9 23 5 45 -28
20 -31 24 -48 22 -92 -3 -56 8 -100 26 -100 5 0 7 7 3 15 -4 12 -2 13 14 3 10
-7 21 -21 24 -32 7 -28 -9 -43 -28 -27 -8 7 -24 10 -35 6 -14 -4 -23 0 -31 15
-8 15 -15 18 -28 11 -19 -10 -50 13 -32 24 6 3 10 17 10 31 0 43 -53 115 -72
96 -7 -7 -2 -16 16 -27 20 -13 24 -21 15 -31 -6 -7 -17 -10 -25 -7 -9 3 -14
-2 -14 -16 0 -26 -8 -26 -36 0 -19 18 -25 19 -43 8 -14 -10 -19 -20 -15 -35
14 -55 -26 -84 -64 -46 -19 19 -33 96 -51 282 -11 111 -20 152 -35 162 -6 4
-15 36 -21 70 -9 54 -13 63 -32 66 -24 4 -30 16 -13 27 6 4 3 17 -10 35 -12
17 -20 44 -20 67 0 27 -6 46 -20 58 -11 10 -20 23 -20 30 0 11 -25 27 -63 39
-23 7 -13 26 14 26 10 0 19 5 19 11 0 6 6 9 14 6 8 -3 24 5 36 18 28 30 16 50
-37 60 -47 8 -73 26 -73 47 0 10 -7 18 -15 18 -8 0 -25 21 -37 47 -15 31 -34
52 -55 62 -21 11 -37 29 -47 55 -9 22 -14 41 -12 43 2 3 23 -1 46 -8 33 -10
46 -10 62 0 11 7 21 11 22 9 1 -2 8 -16 15 -33 l13 -30 13 30 c9 20 14 24 14
12 1 -11 6 -15 12 -11 6 3 21 -5 33 -19 69 -83 91 -107 98 -107 17 0 5 17 -56
83 l-63 68 17 47 c27 75 31 84 50 132 10 25 26 66 36 93 9 26 19 47 22 47 3 0
59 -55 123 -122 65 -67 121 -119 125 -116 3 4 -48 62 -115 130 -75 76 -121
131 -121 144 0 11 14 33 30 49 17 16 30 35 30 42 0 7 4 13 9 13 6 0 27 31 48
69 l37 69 45 -37 c25 -20 59 -49 76 -66 165 -160 205 -193 205 -165 0 6 -5 10
-10 10 -6 0 -27 17 -48 38 -39 39 -190 176 -231 209 -19 16 -22 23 -13 39 18
34 41 188 31 201 -7 7 -6 14 1 18 5 3 10 24 10 46 0 23 5 39 12 39 6 0 33 -18
59 -40 26 -22 50 -40 54 -40 3 0 37 -26 75 -58 38 -31 90 -73 115 -92 26 -19
71 -55 101 -79 30 -24 58 -41 62 -37 4 4 -4 16 -18 27 -14 10 -30 23 -36 28
-6 5 -40 30 -76 57 -35 27 -100 77 -144 111 -43 34 -107 84 -141 110 -65 51
-71 62 -68 133 2 37 41 208 50 218 3 4 104 -62 141 -92 18 -15 37 -26 43 -26
5 0 25 -12 43 -27 38 -32 56 -44 118 -77 25 -13 56 -35 71 -48 35 -33 129 -92
135 -85 3 3 -7 13 -23 23 -15 10 -48 35 -72 56 -24 21 -49 38 -55 38 -6 0 -29
14 -50 30 -22 17 -44 30 -49 30 -4 0 -34 19 -65 43 -31 24 -96 69 -144 101
-77 51 -120 86 -106 86 12 0 -33 155 -50 174 -10 12 -26 33 -35 48 -9 15 -26
38 -37 50 -11 13 -34 38 -50 57 -17 19 -30 45 -30 58 0 31 10 21 69 -69 42
-64 62 -80 89 -71 20 7 14 32 -15 59 -43 39 -18 40 42 1 30 -21 58 -37 62 -37
4 0 55 -29 114 -65 58 -36 109 -65 113 -65 3 0 25 -12 49 -27 23 -15 62 -38
86 -50 25 -13 52 -29 60 -37 20 -17 77 -46 91 -46 22 0 8 16 -32 35 -23 11
-62 33 -87 49 -64 41 -138 83 -191 108 -25 11 -58 31 -75 44 -16 12 -61 39
-100 60 -38 20 -82 45 -97 56 -14 10 -33 18 -42 18 -9 0 -16 8 -16 19 0 32
-11 51 -30 51 -28 0 -43 25 -31 49 16 29 13 51 -6 51 -24 1 -55 29 -70 63 -7
15 -21 27 -31 27 -14 0 -23 16 -39 68 -11 37 -19 69 -17 71 2 2 26 -8 53 -23
56 -29 61 -30 61 -17 0 5 -29 23 -64 39 -60 28 -66 34 -77 74 -6 24 -21 70
-31 103 -42 128 -41 118 -8 112 15 -4 52 -18 81 -32 29 -14 56 -25 61 -25 4 0
31 -11 60 -24 29 -13 80 -34 113 -46 33 -12 83 -32 110 -45 28 -14 65 -28 82
-31 18 -4 38 -13 44 -20 6 -8 20 -14 31 -14 10 0 36 -9 58 -20 21 -11 61 -27
87 -36 26 -9 75 -29 109 -45 65 -31 84 -35 84 -19 0 6 -7 10 -14 10 -8 0 -37
12 -63 26 -26 14 -68 32 -93 39 -25 7 -97 35 -160 63 -63 27 -170 70 -236 96
-67 26 -130 53 -140 61 -11 8 -25 15 -33 15 -8 0 -61 19 -118 42 l-104 42 -34
71 c-19 38 -55 93 -80 122 -25 28 -45 56 -45 62 0 12 58 4 76 -10 5 -5 35 -15
65 -23 30 -7 72 -21 94 -29 62 -23 211 -67 226 -66 18 1 -44 28 -101 44 -43
12 -92 29 -135 46 -11 4 -47 15 -80 25 -33 9 -75 22 -93 30 -18 8 -41 14 -51
14 -25 0 -137 91 -273 223 -27 25 -24 49 5 38 12 -5 49 -15 82 -21 33 -7 114
-26 180 -42 66 -17 138 -34 160 -39 22 -4 85 -20 140 -35 129 -34 155 -38 155
-27 0 4 -42 19 -92 31 -51 12 -138 34 -193 48 -55 14 -120 30 -145 36 -25 5
-67 16 -95 24 -27 8 -84 21 -125 28 -41 8 -83 18 -93 22 -23 9 -37 44 -37 95
0 22 -5 49 -11 61 -14 26 -11 28 39 18 23 -4 42 -4 42 0 0 9 -71 31 -81 24 -4
-2 -10 9 -14 26 -7 31 -41 64 -78 76 -12 4 -41 20 -64 35 -36 25 -51 29 -114
29 -70 0 -74 -1 -120 -40 -33 -28 -56 -39 -80 -40 -34 -1 -173 25 -189 35 -5
3 -37 8 -72 11 -35 2 -76 9 -93 14 -16 5 -66 14 -110 20 -117 17 -236 37 -240
42 -2 2 5 19 16 37 l20 34 72 -7 c40 -4 86 -9 102 -12 63 -8 116 -13 330 -33
121 -12 229 -23 240 -26 11 -2 117 -13 235 -24 118 -12 251 -25 295 -31 142
-19 555 -60 593 -60 57 1 19 17 -58 25 -36 3 -132 13 -215 21 -459 43 -528 50
-770 79 -66 8 -154 17 -195 20 -41 3 -88 8 -105 11 -16 2 -77 9 -135 14 -149
14 -170 17 -281 31 l-98 12 20 39 c19 38 20 39 67 34 26 -3 148 -8 272 -12
124 -3 268 -8 320 -9 439 -15 500 -15 500 -6 0 7 -28 11 -67 12 -38 1 -90 2
-118 3 -27 2 -162 6 -300 10 -137 5 -275 10 -305 11 -30 2 -113 4 -185 4 -71
1 -136 5 -143 10 -11 7 -11 15 2 45 14 35 17 36 68 37 29 0 87 2 128 4 204 8
486 18 575 20 342 8 556 15 600 20 28 2 151 7 275 11 124 3 229 10 235 16 7 6
-47 7 -155 3 -91 -3 -219 -8 -285 -10 -110 -4 -200 -7 -640 -20 -82 -2 -190
-7 -240 -10 -49 -2 -191 -7 -314 -10 l-224 -6 7 32 c3 17 6 35 6 40 0 4 19 10
43 13 23 2 105 12 182 21 174 20 197 24 189 36 -3 6 -13 8 -22 4 -21 -8 -230
-34 -318 -40 -59 -3 -65 -2 -59 13 4 9 10 27 12 39 3 12 10 27 17 32 10 8 119
30 256 51 30 4 91 15 135 25 44 9 94 18 110 19 17 2 57 8 90 15 33 6 85 15
115 21 30 5 78 13 105 19 28 5 82 14 120 20 39 6 93 15 120 21 85 18 337 60
361 60 27 0 79 18 72 25 -3 3 -72 -6 -154 -20 -82 -14 -187 -32 -234 -40 -47
-7 -152 -26 -235 -40 -82 -15 -188 -33 -235 -42 -47 -8 -105 -18 -130 -23 -25
-4 -81 -13 -125 -20 -44 -6 -83 -14 -88 -17 -4 -2 -20 -6 -35 -8 -15 -2 -67
-11 -116 -19 -49 -9 -99 -16 -113 -16 -22 0 -23 3 -17 38 7 39 18 52 46 52 9
0 20 5 23 10 3 6 20 10 38 10 17 0 49 6 72 14 22 8 67 20 100 27 33 7 65 15
70 19 10 7 29 12 110 30 109 23 276 64 330 80 33 10 94 27 135 36 41 10 66 20
56 22 -21 4 -124 -17 -141 -28 -5 -4 -28 -11 -50 -14 -22 -4 -76 -16 -120 -28
-44 -11 -105 -26 -135 -33 -30 -7 -100 -25 -155 -40 -136 -37 -169 -45 -250
-60 -38 -8 -80 -17 -93 -21 -22 -6 -23 -5 -20 42 l3 48 125 42 c69 23 161 51
205 64 44 12 99 31 122 41 24 11 50 19 58 19 8 0 15 4 15 10 0 5 -6 8 -12 5
-7 -2 -47 -13 -88 -25 -41 -11 -91 -27 -110 -34 -19 -8 -80 -28 -135 -45 -55
-18 -115 -36 -133 -42 -19 -6 -36 -8 -39 -5 -4 3 -7 25 -7 47 -1 37 3 44 29
58 17 9 46 22 65 28 59 19 170 62 219 84 59 28 67 31 181 74 52 20 118 47 145
60 28 13 61 26 75 30 25 7 120 45 175 70 17 8 55 24 85 36 30 11 75 29 100 39
25 10 70 28 100 39 30 12 89 36 130 53 41 17 87 36 103 42 25 10 37 26 19 26
-4 0 -46 -16 -92 -36 -47 -19 -101 -41 -120 -49 -19 -7 -51 -20 -70 -28 -19
-9 -78 -32 -130 -52 -52 -20 -104 -41 -115 -46 -107 -46 -146 -63 -185 -75
-25 -9 -73 -28 -108 -45 -35 -16 -67 -29 -71 -29 -8 0 -61 -22 -136 -55 -16
-7 -60 -25 -96 -38 -36 -14 -75 -29 -85 -35 -29 -15 -202 -82 -213 -82 -10 0
-20 66 -14 90 2 8 25 24 51 34 26 11 58 28 71 38 13 10 31 18 40 18 9 0 28 8
41 17 14 10 29 18 35 19 5 1 60 28 120 59 61 31 97 54 81 50 -24 -5 -127 -51
-186 -84 -8 -4 -25 -13 -37 -19 -13 -7 -31 -16 -40 -21 -38 -20 -176 -82 -177
-79 -25 51 -23 104 4 113 10 3 35 19 55 35 21 17 42 30 47 30 4 0 45 23 89 50
44 28 85 50 90 50 10 0 30 11 114 65 56 37 162 98 233 135 72 38 166 93 172
100 3 4 14 10 25 14 14 6 16 10 7 13 -7 3 -21 -2 -30 -10 -9 -8 -28 -18 -42
-22 -14 -4 -44 -20 -66 -36 -23 -15 -60 -36 -83 -45 -22 -9 -41 -19 -41 -23 0
-4 -28 -22 -62 -40 -35 -18 -99 -54 -143 -81 -44 -28 -85 -50 -91 -50 -6 0
-21 -9 -34 -20 -13 -11 -27 -20 -33 -20 -5 0 -42 -21 -81 -47 -39 -26 -90 -58
-113 -70 l-43 -23 -5 27 c-4 16 -11 39 -16 52 -6 13 -6 27 -2 31 7 7 232 158
275 185 16 10 99 65 152 101 15 10 44 29 63 40 20 12 38 26 42 31 3 4 26 21
51 37 25 16 40 31 33 33 -6 2 -30 -10 -54 -27 -51 -35 -146 -100 -171 -115
-34 -20 -164 -110 -183 -126 -11 -9 -44 -29 -72 -44 -29 -15 -53 -31 -53 -35
0 -4 -14 -13 -30 -20 -17 -7 -35 -20 -40 -29 -9 -14 -11 -14 -25 3 -8 11 -18
35 -21 55 -6 30 -3 37 22 58 48 38 87 70 125 102 20 17 39 31 43 31 3 0 16 8
28 19 13 10 52 43 88 73 36 30 72 58 81 64 31 18 102 84 97 90 -3 3 -21 -8
-39 -23 -19 -16 -44 -35 -55 -43 -26 -18 -121 -94 -149 -119 -11 -9 -51 -41
-90 -71 -38 -29 -92 -71 -118 -93 -39 -32 -51 -38 -58 -26 -5 8 -9 20 -9 27 0
7 -7 24 -16 37 -15 23 -14 25 23 62 22 21 91 83 153 138 62 55 136 123 164
150 47 45 96 89 245 220 25 22 68 61 96 86 27 26 82 75 120 110 39 35 115 104
168 154 54 49 109 96 122 105 13 9 72 61 132 116 59 56 137 127 173 159 36 32
95 85 131 119 76 71 112 104 229 207 47 42 104 93 127 115 23 21 70 64 104 94
35 30 140 125 234 210 94 85 208 189 254 230 45 41 90 79 99 84 9 4 30 24 47
44 29 34 29 35 5 22 -14 -7 -36 -25 -50 -39 -14 -15 -52 -49 -85 -76 -33 -28
-91 -80 -129 -118 -38 -37 -84 -79 -102 -92 -18 -14 -57 -49 -87 -78 -29 -28
-72 -68 -96 -87 -23 -19 -61 -53 -85 -75 -72 -66 -199 -180 -234 -210 -19 -15
-46 -40 -61 -54 -15 -14 -58 -53 -95 -86 -59 -52 -112 -100 -236 -215 -15 -14
-69 -64 -121 -111 -52 -48 -106 -98 -120 -111 -15 -14 -43 -35 -62 -47 -19
-12 -42 -33 -51 -46 -9 -14 -20 -25 -25 -25 -4 0 -37 -28 -72 -63 -35 -34
-102 -96 -148 -137 -47 -41 -96 -85 -110 -98 -13 -12 -48 -43 -78 -69 -29 -26
-75 -67 -102 -92 -27 -25 -79 -74 -117 -107 -83 -74 -180 -161 -298 -268 -48
-43 -88 -77 -90 -75 -1 2 -13 26 -25 53 l-22 48 23 26 c13 15 37 41 55 59 17
19 79 84 137 146 58 61 182 191 275 287 94 96 165 177 159 179 -6 2 -14 -2
-18 -9 -8 -13 -212 -226 -462 -481 -82 -83 -148 -154 -148 -159 0 -11 -30 -21
-41 -14 -5 3 -20 22 -33 42 l-23 36 86 103 c47 57 103 125 124 151 21 26 48
58 61 72 56 64 275 324 403 481 29 35 71 84 93 109 74 83 100 115 99 125 0 10
-60 -52 -111 -116 -32 -40 -143 -173 -174 -209 -12 -14 -40 -47 -63 -75 -23
-27 -61 -72 -85 -100 -74 -84 -129 -150 -166 -196 -19 -24 -47 -56 -62 -71
-16 -15 -28 -30 -28 -33 0 -7 -90 -115 -151 -182 l-39 -43 -38 41 c-20 23 -38
45 -40 49 -2 4 8 20 21 36 24 30 128 172 182 249 119 170 129 184 160 219 6 6
27 36 47 67 21 31 53 75 72 98 19 23 38 50 41 61 4 11 10 20 14 20 4 0 25 26
47 58 33 49 118 166 183 252 10 14 40 57 66 95 27 39 56 78 64 87 9 9 27 33
41 53 14 20 43 60 66 88 23 29 49 67 58 85 9 17 20 32 24 32 4 0 16 15 27 33
18 31 99 141 149 203 15 18 26 37 26 42 0 6 6 15 13 19 7 4 30 35 52 68 21 33
49 71 62 85 13 14 23 29 23 34 0 17 -50 -37 -87 -94 -20 -30 -60 -86 -90 -125
-29 -38 -64 -86 -78 -105 -14 -19 -43 -57 -64 -85 -21 -27 -63 -88 -95 -134
-32 -46 -62 -89 -67 -95 -5 -6 -23 -29 -40 -51 -16 -22 -36 -47 -43 -56 -12
-14 -61 -84 -268 -375 -25 -36 -58 -79 -73 -96 -15 -17 -33 -40 -39 -52 -6
-11 -58 -84 -116 -161 -58 -77 -118 -160 -135 -185 -16 -25 -36 -51 -43 -59
-8 -8 -25 -33 -39 -55 -14 -23 -44 -63 -67 -91 -23 -27 -48 -62 -55 -77 -8
-16 -18 -28 -23 -28 -4 0 -8 -6 -8 -14 0 -41 -39 -23 -82 37 -20 27 -20 27 3
65 37 61 121 192 167 260 24 35 47 74 52 86 14 33 247 408 290 466 31 42 100
158 100 169 0 4 9 16 20 26 11 10 20 22 20 27 0 5 12 27 26 49 14 23 23 43 20
47 -3 3 -7 3 -9 1 -25 -36 -56 -89 -61 -107 -4 -12 -11 -22 -16 -22 -5 0 -26
-30 -47 -67 -20 -38 -51 -88 -68 -113 -17 -25 -42 -64 -55 -87 -13 -24 -27
-43 -32 -43 -4 0 -8 -4 -8 -9 0 -8 -120 -206 -176 -292 -13 -19 -24 -39 -24
-43 0 -5 -16 -30 -35 -56 -19 -26 -35 -51 -35 -54 0 -4 -20 -36 -45 -73 -25
-36 -45 -71 -45 -78 0 -7 -4 -15 -9 -17 -5 -1 -22 -24 -38 -50 l-30 -48 -47
36 c-48 36 -52 44 -36 60 15 15 82 156 76 161 -6 6 -48 -61 -75 -120 l-21 -47
-50 31 c-28 17 -50 36 -50 42 0 20 27 89 63 162 44 89 77 162 77 169 0 3 12
31 26 63 15 32 33 74 42 93 8 19 34 76 58 126 24 50 44 94 44 99 0 4 18 44 39
89 22 44 49 106 61 136 11 30 27 69 35 85 54 115 113 245 152 335 24 58 50
114 57 125 7 11 23 48 35 81 12 34 34 83 47 110 13 26 24 55 24 64 0 9 9 25
20 35 11 10 20 24 20 32 0 7 22 60 50 117 27 57 65 143 86 192 20 49 44 105
54 124 31 62 80 176 80 188 0 34 -21 -1 -69 -115 -30 -71 -67 -156 -82 -190
-16 -34 -31 -73 -35 -87 -3 -14 -12 -30 -20 -37 -8 -6 -14 -18 -14 -26 0 -7
-24 -64 -54 -126 -30 -62 -57 -123 -61 -137 -4 -13 -38 -88 -75 -165 -37 -77
-72 -157 -79 -177 -7 -21 -28 -70 -48 -110 -19 -40 -43 -93 -53 -118 -10 -25
-34 -81 -54 -125 -20 -44 -45 -98 -55 -120 -10 -22 -32 -69 -49 -105 -18 -36
-32 -70 -32 -77 0 -6 -13 -36 -28 -65 -16 -29 -44 -91 -62 -138 -19 -47 -39
-92 -45 -100 -7 -8 -22 -44 -34 -79 -13 -35 -34 -84 -47 -109 -13 -25 -24 -50
-24 -56 0 -6 -9 -22 -20 -36 -11 -14 -20 -30 -20 -36 0 -6 -7 -28 -15 -48
l-15 -37 -48 27 c-66 38 -65 37 -48 79 9 21 16 44 16 52 0 26 -19 3 -31 -38
-12 -38 -14 -39 -43 -33 -44 9 -86 32 -86 47 0 6 11 45 25 85 14 41 25 82 25
92 0 10 7 31 15 46 8 16 15 45 15 64 l-1 35 -14 -33 c-8 -18 -28 -87 -44 -154
-17 -67 -34 -125 -38 -129 -5 -5 -34 1 -66 13 -49 18 -57 24 -52 42 3 12 10
37 15 56 8 30 26 119 60 295 5 22 13 66 19 98 5 32 15 73 20 90 6 18 20 82 32
142 39 202 48 245 57 261 5 9 7 25 5 34 -3 10 0 26 5 37 9 16 37 136 47 198 2
11 17 89 35 174 17 84 29 156 26 159 -7 6 -9 -2 -31 -103 -10 -44 -21 -91 -26
-105 -4 -14 -10 -43 -14 -65 -11 -72 -76 -381 -97 -460 -6 -22 -12 -49 -13
-61 -4 -30 -27 -141 -61 -299 -4 -16 -8 -39 -10 -50 -5 -39 -33 -166 -38 -174
-3 -4 -10 -39 -16 -77 -6 -38 -16 -91 -22 -117 -12 -46 -13 -48 -43 -43 -16 3
-43 9 -60 14 -29 9 -30 10 -27 68 2 42 0 55 -8 44 -5 -8 -10 -28 -10 -45 0
-41 -10 -53 -40 -50 -14 1 -40 3 -58 4 l-34 1 6 143 c3 78 8 156 11 172 7 43
24 290 30 430 3 66 8 132 11 147 3 14 1 29 -4 32 -11 7 -20 -55 -27 -194 -3
-52 -7 -115 -10 -140 -3 -25 -7 -99 -11 -165 -3 -66 -11 -185 -17 -265 l-12
-145 -60 0 -60 0 -5 850 c-3 468 -8 841 -12 830 -4 -11 -7 -301 -7 -645 0
-344 0 -717 -1 -830 l0 -205 -65 -3 -65 -3 -1 38 c-1 21 -3 56 -5 78 -1 22 -8
108 -14 190 -6 83 -13 170 -15 195 -2 25 -9 126 -16 225 -6 99 -13 194 -14
210 -2 17 -3 38 -4 48 -1 9 -6 17 -12 17 -8 0 -9 -17 -4 -57 4 -32 9 -76 10
-98 12 -155 15 -212 20 -300 3 -55 8 -120 10 -145 2 -25 9 -115 15 -200 6 -85
12 -163 13 -174 2 -20 -46 -44 -94 -45 -24 -1 -27 4 -39 62 -12 59 -20 118
-40 292 -4 44 -18 145 -30 225 -12 80 -23 161 -26 180 -2 19 -7 46 -10 60 -5
23 -27 179 -41 298 -3 29 -10 55 -14 58 -5 3 -9 -1 -9 -8 0 -22 29 -235 55
-413 14 -93 30 -206 36 -250 6 -44 15 -105 19 -135 5 -30 19 -124 31 -209 24
-169 25 -162 -41 -181 -47 -13 -70 -13 -71 3 0 6 -4 3 -9 -9 -5 -14 -24 -26
-52 -33 -23 -7 -48 -14 -53 -17 -13 -5 -34 54 -69 188 -14 53 -33 116 -42 140
-9 24 -16 52 -15 62 0 11 -6 34 -13 50 -14 31 -49 154 -61 213 -4 18 -11 35
-16 38 -5 4 -9 17 -9 29 0 13 -7 43 -16 67 -8 24 -19 62 -24 84 -9 42 -10 44
-63 230 -19 66 -49 171 -66 233 -18 62 -37 125 -43 140 -7 15 -13 34 -14 42
-3 17 -54 202 -81 293 -16 57 -33 83 -33 53 0 -9 9 -42 20 -73 11 -32 24 -78
29 -103 5 -25 26 -97 46 -160 35 -110 45 -144 94 -325 12 -44 31 -107 43 -140
11 -33 31 -103 43 -155 12 -52 37 -144 55 -205 18 -60 36 -126 41 -145 10 -39
44 -152 65 -218 8 -23 14 -51 14 -62 0 -10 5 -22 10 -25 6 -3 10 -15 10 -26 0
-10 9 -45 20 -78 11 -32 22 -67 25 -77 19 -90 22 -81 -31 -103 -27 -12 -53
-22 -57 -24 -5 -1 -15 14 -21 33 -7 19 -23 62 -36 95 -12 33 -40 112 -61 175
-21 63 -43 123 -49 133 -6 10 -24 55 -39 100 -82 231 -112 314 -121 332 -5 11
-30 81 -55 155 -25 74 -50 144 -55 155 -5 11 -22 56 -38 100 -17 44 -44 117
-61 162 -17 45 -31 87 -31 92 0 6 -7 25 -15 43 -15 35 -86 228 -141 387 -18
51 -37 98 -42 103 -16 16 1 -43 53 -187 26 -71 66 -184 90 -250 23 -67 47
-130 52 -140 6 -11 30 -76 53 -145 23 -69 50 -140 61 -158 11 -19 17 -38 13
-43 -3 -6 1 -20 8 -32 8 -12 17 -31 20 -42 3 -11 25 -72 48 -135 23 -63 48
-135 56 -160 8 -25 20 -54 26 -65 6 -11 15 -33 19 -50 4 -16 35 -104 69 -195
34 -91 79 -216 100 -278 22 -62 44 -121 48 -130 5 -9 12 -29 16 -44 5 -23 1
-29 -40 -52 -26 -14 -50 -26 -53 -26 -8 0 -91 162 -91 177 0 6 -11 33 -24 60
-34 67 -66 141 -66 149 0 3 -15 38 -34 78 -19 39 -49 101 -66 139 -17 37 -34
67 -37 67 -11 0 10 -57 63 -165 29 -61 54 -119 54 -127 0 -9 7 -21 15 -28 8
-7 15 -18 15 -25 0 -7 15 -46 34 -86 18 -41 41 -92 51 -114 9 -22 29 -63 43
-92 14 -29 24 -54 21 -56 -2 -2 -25 -18 -50 -35 -55 -37 -52 -39 -110 75 -21
43 -56 110 -78 148 -21 39 -74 140 -119 226 -44 86 -92 176 -106 200 -15 24
-41 73 -60 109 -60 119 -128 245 -146 270 -10 14 -38 67 -63 118 -25 51 -49
98 -55 105 -17 21 -92 170 -92 183 0 7 -8 21 -18 31 -10 10 -25 34 -32 53 -8
19 -23 51 -35 70 -12 19 -46 82 -77 140 -58 112 -76 146 -90 170 -9 16 -31 59
-123 235 -31 61 -64 121 -73 135 -13 21 -70 128 -116 217 -11 22 -26 31 -26
15z m2585 -2263 c117 -22 309 -82 336 -105 8 -8 20 -14 26 -14 6 0 48 -21 92
-47 45 -27 94 -55 109 -63 15 -8 36 -23 47 -33 11 -9 52 -43 90 -75 96 -80
237 -242 302 -346 149 -240 224 -505 225 -791 0 -135 -11 -257 -33 -340 -6
-22 -15 -58 -20 -80 -6 -21 -14 -44 -18 -50 -4 -5 -8 -19 -8 -31 -2 -25 -89
-223 -108 -244 -8 -9 -15 -23 -15 -30 0 -7 -12 -29 -27 -49 -16 -20 -44 -61
-65 -92 -44 -68 -173 -206 -246 -263 -102 -79 -197 -145 -210 -145 -8 -1 -26
-9 -40 -19 -26 -18 -72 -41 -152 -75 -45 -19 -143 -50 -247 -77 -245 -63 -659
-27 -898 80 -119 53 -179 85 -265 141 -112 74 -133 91 -225 184 -182 183 -307
390 -378 625 -55 182 -70 284 -67 475 2 172 6 198 47 355 42 158 47 171 101
280 101 205 230 371 382 492 36 29 70 58 75 64 6 6 42 31 80 55 39 24 79 50
90 57 115 72 400 164 561 180 128 13 332 4 459 -19z m1395 -2349 c63 -10 160
-27 215 -36 156 -25 159 -26 172 -43 9 -13 14 -14 24 -3 20 18 36 15 66 -16
24 -23 71 -128 61 -137 -2 -2 -46 8 -98 21 -52 13 -123 31 -157 39 -34 8 -69
18 -77 21 -10 4 -16 1 -16 -8 0 -13 19 -18 175 -53 11 -3 34 -7 50 -11 17 -3
39 -10 50 -14 11 -5 34 -11 50 -12 22 -2 34 -11 45 -33 27 -52 52 -85 65 -85
11 0 65 -68 65 -82 0 -4 -28 4 -62 17 -35 13 -110 38 -168 55 -58 18 -114 36
-125 40 -11 4 -40 13 -65 19 -25 7 -72 23 -105 35 -33 13 -94 34 -135 46 -41
13 -84 27 -95 31 -11 5 -47 15 -80 24 -33 9 -69 20 -80 25 -44 19 -143 52
-183 62 -51 12 -61 29 -34 58 22 24 50 22 147 -7 48 -14 75 -21 225 -57 36 -8
98 -23 138 -34 44 -11 71 -15 69 -8 -4 11 -14 14 -152 46 -49 11 -110 26 -135
34 -25 8 -56 17 -70 20 -88 19 -166 39 -173 46 -5 4 -2 21 7 37 l15 30 128
-23 c70 -13 180 -33 243 -44z m-2967 30 l18 -29 -28 -7 c-15 -3 -66 -17 -113
-29 -47 -13 -111 -29 -142 -36 -32 -7 -58 -16 -58 -22 0 -5 12 -6 28 -3 15 4
50 11 77 16 28 5 84 19 125 31 125 35 132 35 153 -2 10 -17 16 -32 15 -33 -4
-2 -80 -24 -133 -37 -22 -6 -53 -17 -70 -24 -45 -21 -507 -168 -525 -168 -8 0
-20 -3 -26 -8 -12 -9 -249 -89 -279 -94 -11 -2 -28 -6 -37 -10 -29 -12 -21 2
31 55 27 27 52 63 56 79 9 43 26 52 123 72 86 18 129 28 227 54 146 40 175 49
175 57 0 11 0 11 -145 -28 -193 -52 -246 -65 -287 -68 -20 -2 -41 -7 -47 -11
-17 -10 -13 18 9 67 27 63 51 82 91 73 20 -5 34 -3 39 5 4 6 38 17 76 25 139
27 231 44 329 59 55 9 125 21 155 26 140 25 143 25 163 -10z m109 -147 c27
-24 22 -40 -17 -53 -19 -6 -37 -15 -40 -20 -3 -5 9 -4 27 2 66 21 82 20 100
-6 l17 -24 -103 -51 c-56 -28 -109 -51 -118 -51 -8 0 -23 -9 -33 -20 -10 -11
-24 -20 -30 -20 -7 0 -70 -29 -141 -64 -71 -35 -213 -105 -316 -155 -102 -51
-192 -93 -200 -95 -7 -1 -24 -9 -38 -18 -14 -9 -50 -28 -80 -42 -30 -14 -62
-31 -70 -36 -8 -6 -36 -19 -63 -31 -26 -11 -45 -24 -43 -28 3 -5 72 25 153 65
81 41 164 81 183 89 19 8 42 19 50 24 29 17 125 61 134 61 4 0 20 8 34 18 15
10 47 27 72 37 25 10 59 29 77 42 17 13 36 23 42 23 6 0 93 40 193 89 335 162
313 154 342 122 17 -19 16 -21 -23 -45 -22 -14 -44 -26 -49 -26 -5 0 -58 -30
-118 -67 -60 -36 -125 -75 -144 -85 -45 -24 -66 -36 -117 -70 -23 -15 -48 -28
-56 -28 -9 0 -17 -6 -20 -12 -3 -10 -7 -10 -20 1 -10 8 -24 10 -34 6 -10 -5
-23 -7 -30 -6 -15 2 -26 -16 -27 -46 -1 -19 -16 -32 -81 -67 -44 -24 -102 -57
-129 -75 -28 -17 -54 -31 -60 -31 -5 0 -17 -7 -26 -15 -19 -17 -104 -64 -162
-90 -21 -10 -38 -21 -38 -26 0 -5 -4 -9 -9 -9 -6 0 -29 -13 -53 -29 -24 -16
-70 -43 -103 -61 -92 -51 -98 -54 -130 -75 -31 -21 -62 -38 -173 -97 -39 -21
-73 -42 -77 -48 -3 -5 -13 -10 -22 -10 -19 0 -14 22 32 140 31 80 84 160 106
160 6 0 43 15 82 34 40 18 89 41 110 50 20 9 37 21 37 26 0 14 -1 14 -104 -35
-53 -25 -97 -45 -100 -45 -2 0 15 29 39 64 23 35 51 86 60 112 23 62 30 71 60
78 14 4 53 19 87 35 35 16 83 36 108 45 25 10 58 24 73 32 16 8 33 14 38 14 4
0 33 11 63 25 30 14 59 25 64 25 9 0 88 33 168 71 23 10 47 19 53 19 7 0 29 9
49 20 20 11 80 36 132 56 103 38 122 46 160 62 14 6 57 23 95 38 68 26 100 44
79 44 -16 0 -140 -45 -156 -56 -7 -5 -38 -18 -68 -28 -58 -20 -114 -42 -142
-56 -9 -5 -54 -23 -100 -41 -45 -17 -96 -37 -113 -45 -16 -7 -127 -52 -245
-99 -239 -95 -247 -98 -307 -128 -23 -12 -44 -19 -47 -16 -7 7 73 169 83 169
6 0 12 9 16 19 4 15 44 32 163 70 87 28 165 51 173 51 8 0 23 6 34 13 11 8 49
22 85 31 69 19 227 71 270 89 14 5 30 11 37 13 25 5 149 45 163 53 9 5 31 12
50 15 33 7 43 10 100 34 37 16 61 14 82 -5z m2482 -9 c11 -8 27 -14 36 -14 8
0 44 -11 80 -24 36 -13 119 -41 185 -61 66 -21 126 -42 132 -47 7 -6 19 -8 27
-5 7 3 17 2 22 -3 9 -8 206 -75 384 -130 208 -64 240 -77 240 -101 0 -6 11
-25 24 -42 38 -50 77 -137 61 -137 -7 0 -39 12 -71 26 -33 14 -94 39 -137 55
-43 16 -102 40 -131 54 -29 14 -59 25 -67 25 -8 0 -23 6 -34 14 -11 7 -38 19
-60 26 -38 12 -60 21 -200 85 -33 15 -67 28 -75 29 -8 1 -32 9 -53 19 -21 9
-71 28 -110 42 -40 14 -85 32 -102 40 -86 40 -166 75 -175 75 -5 0 -35 11 -65
25 l-56 24 17 27 c16 24 21 25 63 19 25 -4 54 -13 65 -21z m-23 -95 c52 -22
98 -39 102 -39 4 0 31 -12 61 -26 30 -14 60 -27 68 -28 14 -3 45 -15 111 -44
23 -10 58 -25 77 -32 19 -7 49 -18 65 -25 69 -29 254 -104 310 -125 33 -13 87
-36 120 -50 33 -15 87 -37 120 -49 61 -23 129 -52 175 -74 16 -8 39 -39 62
-85 20 -40 55 -97 77 -127 23 -30 38 -55 34 -55 -4 0 -89 40 -188 89 -527 260
-514 254 -500 231 3 -5 90 -50 193 -101 103 -50 270 -132 371 -182 202 -101
181 -82 231 -202 23 -56 51 -147 46 -152 -2 -3 -20 3 -39 13 -19 11 -56 30
-81 43 -25 14 -46 29 -46 33 0 4 -8 8 -19 8 -10 0 -24 7 -31 15 -7 8 -17 15
-23 15 -5 0 -38 18 -73 40 -38 24 -64 35 -64 27 0 -7 41 -35 91 -62 49 -28
109 -62 132 -77 23 -15 46 -28 50 -28 16 0 60 -40 46 -40 -8 0 -32 -14 -52
-31 -35 -28 -46 -32 -117 -35 -76 -3 -81 -2 -122 29 -24 17 -59 41 -78 51 -19
10 -44 27 -55 37 -11 10 -31 24 -45 31 -14 7 -58 36 -98 63 -40 28 -125 86
-190 130 -129 88 -126 84 -108 183 7 38 6 42 -12 42 -22 0 -43 -22 -60 -64
-12 -27 -13 -27 -35 -12 -12 9 -36 23 -52 32 -30 15 -31 18 -25 67 9 80 12 82
83 42 34 -19 85 -46 112 -60 52 -26 86 -45 145 -81 19 -12 62 -36 95 -54 33
-18 62 -36 65 -39 3 -3 27 -17 55 -31 27 -14 62 -33 76 -44 15 -10 33 -16 41
-13 8 3 2 9 -15 16 -16 6 -43 22 -60 35 -18 13 -68 43 -112 66 -44 23 -87 48
-95 54 -8 6 -24 16 -35 22 -74 40 -121 67 -130 74 -5 4 -46 27 -90 50 -121 65
-116 61 -113 100 3 31 -1 37 -34 55 l-37 20 -21 -23 c-21 -22 -23 -23 -48 -6
-35 23 -143 84 -148 84 -3 0 -46 26 -97 58 -51 32 -99 62 -107 66 -8 4 -42 22
-75 41 -33 18 -77 41 -97 50 -44 20 -48 38 -15 60 22 14 28 13 93 -19 38 -18
89 -43 114 -55 25 -12 52 -26 60 -31 8 -5 47 -24 85 -41 84 -38 82 -37 170
-81 201 -103 366 -179 377 -176 12 4 -233 128 -517 263 -237 112 -325 156
-331 166 -3 6 2 19 11 29 22 24 36 21 166 -31z m-2265 -88 l23 -18 -39 -32
c-21 -17 -42 -31 -45 -31 -3 0 -30 -18 -59 -40 -29 -22 -57 -40 -62 -40 -5 -1
-25 -14 -44 -30 -19 -17 -38 -30 -42 -30 -5 0 -31 -18 -59 -40 -28 -22 -55
-40 -59 -40 -5 0 -21 -10 -37 -23 -47 -39 -61 -40 -79 -6 -12 25 -18 28 -30
18 -16 -13 -18 -41 -4 -55 6 -6 8 -18 4 -27 -5 -14 -11 -10 -30 19 -32 47 -35
77 -9 82 11 2 25 9 30 16 6 6 32 22 58 34 27 13 54 27 60 33 23 18 88 59 96
59 4 0 34 16 67 36 32 20 84 50 114 67 30 16 66 38 80 48 31 23 37 23 66 0z
m2174 -79 c36 -19 72 -40 81 -48 8 -8 18 -14 22 -14 3 0 26 -13 50 -30 25 -16
48 -30 51 -30 4 0 32 -16 62 -35 30 -19 58 -35 62 -35 4 0 16 -7 26 -15 19
-14 19 -15 0 -36 -10 -11 -23 -32 -29 -46 l-10 -25 -50 36 c-85 61 -127 87
-133 81 -3 -3 -3 -6 -1 -8 2 -1 18 -12 36 -25 18 -12 37 -22 42 -22 5 0 18
-10 28 -23 10 -12 30 -28 46 -34 25 -12 37 -33 18 -33 -5 0 -16 -18 -25 -40
-18 -45 -26 -45 -79 4 -15 14 -30 26 -33 26 -7 0 -108 83 -112 93 -2 4 -8 7
-14 7 -5 0 -24 15 -42 33 -18 19 -47 40 -64 48 -18 8 -32 17 -32 20 0 4 -35
33 -77 65 -43 32 -87 66 -97 76 -19 17 -19 18 5 37 24 19 24 19 56 -5 18 -13
40 -28 50 -32 26 -10 200 -130 208 -142 8 -13 35 -13 35 -1 0 5 -9 12 -19 16
-11 3 -39 21 -63 40 -23 19 -47 35 -52 35 -5 0 -25 12 -45 28 -20 15 -43 32
-51 37 -9 6 -30 19 -48 30 l-31 20 27 22 27 22 55 -31 c30 -17 84 -47 120 -66z
m-2105 24 c19 -14 19 -15 2 -34 -10 -11 -31 -25 -47 -32 -25 -10 -50 -40 -33
-40 9 0 76 42 97 62 17 15 21 15 42 1 13 -8 24 -18 23 -22 0 -3 -39 -40 -85
-81 -47 -41 -106 -94 -132 -118 -26 -23 -71 -64 -101 -90 -29 -26 -70 -63 -90
-82 -20 -19 -69 -64 -110 -100 l-74 -65 7 35 c4 19 9 59 13 88 3 28 9 52 13
52 4 0 30 20 58 45 27 25 55 45 60 45 6 0 15 6 19 13 4 6 29 28 55 47 44 33
59 50 41 50 -5 0 -44 -30 -88 -66 -89 -73 -165 -128 -169 -122 -1 1 -11 23
-21 46 l-19 44 25 19 c13 10 29 19 36 19 6 0 13 4 15 8 3 10 143 112 151 112
5 0 42 24 221 147 54 37 64 39 91 19z m1910 -117 c58 -44 105 -85 105 -90 0
-5 6 -9 14 -9 8 0 21 -6 28 -13 7 -7 40 -34 73 -60 33 -25 71 -56 85 -67 72
-59 115 -92 131 -101 12 -6 19 -21 19 -37 0 -15 11 -58 25 -96 14 -38 24 -70
22 -72 -3 -3 -145 124 -285 254 -51 47 -100 91 -109 96 -9 5 -38 30 -64 55
-25 25 -57 55 -71 66 -13 11 -47 42 -76 69 -29 27 -55 46 -58 43 -8 -7 151
-157 326 -307 41 -36 97 -85 124 -110 123 -112 164 -150 213 -196 l52 -49 5
-75 c3 -41 2 -80 -2 -87 -4 -7 -81 65 -212 200 -113 116 -237 242 -275 281
-100 100 -289 305 -293 316 -2 5 9 15 25 22 15 7 37 21 47 30 11 10 26 18 33
18 8 0 61 -36 118 -81z m-24 -231 c123 -128 269 -278 324 -334 55 -55 135
-139 178 -184 l79 -83 -7 -66 c-8 -79 -15 -111 -24 -110 -3 0 -51 55 -106 122
-94 113 -135 162 -177 208 -10 10 -18 21 -18 24 0 12 -44 54 -52 49 -7 -5 40
-67 102 -135 8 -9 42 -49 75 -89 33 -40 81 -97 107 -126 70 -79 71 -81 54
-185 -8 -50 -17 -93 -19 -95 -3 -3 -21 19 -41 48 -20 29 -52 73 -71 98 -40 52
-64 84 -121 166 -52 74 -166 228 -202 272 -15 18 -34 46 -43 61 -8 16 -38 57
-65 92 -28 35 -67 91 -88 124 -21 33 -49 71 -61 85 -29 30 -165 221 -165 230
0 4 11 12 24 18 22 10 28 6 72 -51 27 -34 62 -75 78 -92 16 -16 36 -42 45 -56
14 -23 94 -118 141 -168 9 -9 36 -41 60 -70 60 -74 91 -103 98 -96 4 3 2 9 -4
13 -13 10 -198 228 -259 307 -27 35 -57 70 -66 77 -8 7 -40 44 -69 82 -51 65
-53 69 -35 82 10 8 22 14 25 14 4 0 108 -104 231 -232z m-331 126 c14 -20 36
-54 50 -75 14 -21 43 -62 66 -91 53 -69 125 -165 144 -193 47 -70 151 -214
185 -259 22 -28 54 -71 70 -95 17 -25 40 -56 53 -69 12 -14 22 -31 22 -38 0
-8 4 -14 8 -14 4 0 25 -27 46 -60 21 -33 42 -60 47 -60 5 0 17 -17 27 -37 9
-21 22 -41 27 -45 6 -4 28 -33 50 -65 22 -32 42 -60 46 -63 7 -6 21 -139 25
-240 2 -70 5 -77 37 -110 54 -55 193 -180 292 -263 22 -18 58 -50 80 -71 22
-21 66 -56 97 -77 32 -22 63 -49 69 -62 7 -12 18 -26 25 -30 16 -9 19 -68 5
-83 -5 -5 -12 -27 -16 -49 -5 -34 -4 -37 6 -20 7 11 13 21 14 23 1 1 9 0 18
-4 13 -5 14 -10 6 -26 -6 -11 -8 -30 -5 -42 4 -16 -2 -30 -20 -47 -14 -13 -35
-41 -46 -62 l-19 -38 -22 27 c-12 16 -32 50 -44 76 -12 26 -26 48 -31 48 -15
0 -32 49 -33 98 -1 26 -4 37 -6 25 -6 -31 -19 -29 -39 5 -9 15 -31 50 -49 77
-17 28 -49 78 -71 112 -21 34 -57 89 -79 123 -49 75 -43 67 -105 168 -27 46
-50 88 -50 93 0 5 -5 9 -10 9 -6 0 -14 8 -17 18 -4 9 -18 35 -32 57 -46 73
-51 80 -57 98 -3 9 -10 17 -15 17 -8 0 -21 21 -59 98 -11 23 -25 42 -30 42 -5
0 -12 10 -16 23 -3 12 -32 61 -64 108 -32 48 -61 96 -65 108 -3 11 -11 21 -16
21 -5 0 -9 4 -9 10 0 10 -29 57 -78 125 -15 22 -34 51 -40 65 -7 14 -21 39
-32 55 -11 17 -23 37 -26 45 -4 8 -21 35 -38 60 -17 25 -40 62 -51 83 -11 20
-23 37 -27 37 -5 0 -8 4 -8 10 0 5 -20 39 -45 76 -25 36 -45 70 -45 75 0 9
-37 67 -51 79 -3 3 -23 34 -44 70 -21 36 -49 82 -63 102 -26 40 -23 58 11 58
14 0 31 -14 47 -36z m-60 -51 c18 -32 40 -69 49 -82 9 -13 26 -42 39 -65 12
-22 26 -43 30 -46 5 -3 24 -32 42 -65 19 -33 49 -81 67 -106 18 -26 33 -49 33
-53 0 -4 19 -35 42 -69 24 -34 48 -71 54 -82 24 -46 40 -71 55 -90 8 -11 55
-85 103 -165 78 -129 139 -224 163 -256 18 -24 35 -52 57 -97 13 -26 30 -55
38 -65 12 -14 58 -87 123 -193 6 -9 36 -59 68 -110 32 -52 63 -103 70 -114 27
-43 161 -253 187 -290 15 -22 40 -64 56 -93 46 -85 50 -91 66 -109 9 -10 25
-35 37 -55 12 -21 30 -55 42 -75 12 -21 27 -45 35 -53 8 -9 10 -21 5 -29 -5
-7 -7 -41 -4 -75 3 -33 6 -81 8 -106 4 -72 5 -74 12 -66 4 3 9 37 12 75 l6 68
26 -16 c26 -16 26 -16 12 -66 -23 -81 -32 -197 -17 -215 10 -12 10 -33 2 -97
-6 -46 -14 -83 -19 -83 -4 0 -16 16 -25 36 -17 35 -17 39 -1 67 19 32 16 47
-6 29 -10 -9 -18 -9 -30 1 -15 11 -15 16 7 62 27 55 45 121 27 95 -6 -8 -11
-23 -11 -32 0 -9 -3 -18 -8 -20 -4 -2 -17 -16 -29 -31 -16 -21 -24 -24 -30
-15 -16 26 -63 114 -83 158 -11 25 -28 60 -38 78 -17 32 -16 33 13 89 31 59
43 88 27 64 -18 -26 -23 8 -7 54 17 52 19 75 6 75 -8 0 -16 -34 -48 -193 -8
-40 -20 -42 -37 -5 -9 18 -20 40 -25 48 -5 8 -12 22 -15 30 -4 8 -19 38 -34
65 -37 67 -122 225 -164 304 -18 36 -40 67 -47 69 -12 4 40 -102 75 -153 8
-11 14 -27 14 -37 0 -10 5 -18 10 -18 6 0 10 -7 10 -15 0 -8 4 -15 9 -15 5 0
13 -10 17 -22 11 -39 57 -133 66 -136 4 -2 8 -8 8 -14 0 -5 12 -30 28 -56 59
-101 62 -114 40 -166 -11 -25 -24 -46 -29 -46 -5 0 -9 -9 -9 -19 0 -11 -5 -23
-10 -26 -6 -4 -8 -10 -6 -13 2 -4 -6 -49 -18 -100 -17 -71 -25 -89 -34 -80 -7
7 -12 18 -12 26 0 8 -9 31 -19 51 -27 49 -67 141 -76 171 -4 14 -16 37 -26 52
-11 14 -19 32 -19 40 0 7 -7 23 -15 34 -8 12 -23 43 -34 70 -10 27 -33 79 -50
117 -17 37 -31 72 -31 77 0 6 -4 10 -10 10 -18 0 -11 -23 35 -118 25 -51 45
-97 45 -102 0 -4 27 -65 60 -134 33 -69 60 -128 60 -131 0 -3 15 -38 33 -77
61 -134 61 -134 47 -181 -8 -23 -15 -51 -17 -62 -2 -11 -10 -27 -18 -35 -13
-13 -15 -11 -15 15 -1 17 -7 44 -15 60 -14 29 -15 28 -9 -29 3 -33 10 -70 15
-83 10 -27 -11 -273 -23 -273 -4 0 -8 -12 -8 -27 -1 -35 -14 -14 -25 37 -4 19
-13 42 -20 50 -6 8 -20 42 -29 75 -10 33 -22 71 -28 85 -17 38 -57 148 -75
205 -8 28 -19 54 -24 59 -5 6 -9 17 -9 27 0 9 -14 49 -31 90 -17 41 -42 108
-55 149 -14 41 -29 79 -35 84 -5 6 -9 22 -9 37 0 15 -4 30 -9 34 -5 3 -15 22
-21 43 -12 38 -19 57 -38 102 -6 14 -16 43 -23 65 -6 22 -16 49 -21 60 -4 11
-12 34 -17 50 -5 17 -19 55 -31 85 -12 30 -44 120 -71 200 -28 80 -54 154 -59
165 -14 29 -60 154 -72 195 -5 19 -16 49 -23 65 -29 70 -38 92 -52 135 -8 25
-20 59 -27 75 -8 17 -21 55 -31 85 -9 30 -23 69 -31 87 -8 17 -14 36 -14 43 0
6 -11 35 -24 63 -13 29 -26 61 -29 72 -3 11 -19 58 -37 105 -17 47 -35 99 -41
115 -5 17 -13 39 -18 50 -8 19 -17 43 -72 193 -11 31 -27 73 -34 92 -8 19 -24
67 -36 105 -13 39 -26 72 -29 75 -3 3 -13 28 -22 55 -15 48 -15 50 5 58 19 7
47 -7 47 -24 0 -9 51 -127 109 -254 15 -33 41 -89 56 -125 16 -36 43 -98 62
-137 18 -40 33 -75 33 -77 0 -9 61 -141 91 -199 17 -31 43 -90 58 -130 33 -89
80 -181 89 -173 3 4 -9 39 -28 79 -18 39 -39 86 -46 102 -7 17 -25 57 -40 90
-15 33 -38 85 -51 115 -14 30 -36 80 -50 110 -185 408 -275 621 -269 637 9 21
39 11 54 -17 7 -14 24 -43 36 -65 13 -22 51 -94 85 -160 34 -66 66 -127 71
-135 5 -8 18 -33 28 -55 20 -43 44 -87 52 -95 3 -3 20 -34 38 -70 17 -36 50
-99 73 -140 58 -105 120 -223 202 -380 38 -74 77 -146 87 -160 9 -14 23 -41
30 -60 8 -19 23 -51 35 -70 11 -19 38 -69 59 -110 22 -41 47 -86 56 -100 9
-14 43 -77 74 -140 32 -63 62 -119 67 -124 17 -18 9 25 -9 52 -10 15 -42 74
-71 132 -30 58 -69 133 -88 167 -18 33 -44 81 -58 105 -13 23 -51 97 -85 163
-34 66 -71 136 -82 155 -12 19 -52 96 -90 170 -38 74 -73 140 -78 146 -5 6
-42 73 -81 150 -40 76 -83 156 -96 176 -12 21 -23 43 -23 51 0 7 -8 23 -17 36
-16 24 -80 142 -148 276 -20 39 -42 81 -50 95 -11 19 -11 26 -2 32 27 17 44 5
77 -49z m-2244 -113 l6 -55 -57 -37 -56 -37 -15 35 c-12 27 -20 35 -37 32 -24
-3 -27 -27 -13 -80 9 -30 20 -20 -155 -136 -48 -31 -167 -111 -266 -178 -239
-161 -262 -174 -310 -174 -32 0 -50 8 -83 35 -33 28 -51 35 -83 35 -50 0 -45
6 48 58 39 21 88 49 110 62 22 12 69 38 105 57 36 19 72 40 80 48 8 7 20 14
25 16 9 4 131 76 214 126 20 13 59 34 86 48 76 39 144 77 208 118 31 20 64 37
72 37 7 0 17 5 20 10 10 16 79 49 87 42 4 -4 10 -32 14 -62z m-156 -207 c0 -9
9 -36 21 -60 12 -24 19 -49 16 -57 -3 -7 -25 -26 -50 -42 -54 -36 -165 -134
-151 -134 13 0 50 26 104 73 109 95 106 93 131 71 12 -11 19 -30 19 -54 0 -20
5 -41 11 -47 9 -9 2 -21 -27 -47 -26 -24 -34 -36 -23 -36 9 0 22 7 29 15 24
29 30 14 30 -82 l0 -98 -76 -78 c-42 -43 -74 -81 -71 -84 3 -3 35 25 71 63 36
37 68 65 72 61 8 -7 -15 -154 -38 -243 -9 -37 -28 -69 -64 -111 -28 -32 -80
-94 -114 -138 -73 -92 -168 -185 -190 -185 -9 0 -40 -6 -70 -14 -30 -7 -88
-19 -128 -26 -57 -9 -72 -16 -70 -27 4 -23 49 -53 83 -57 17 -2 34 -4 39 -5 4
0 6 -9 3 -20 -2 -10 0 -26 5 -35 7 -13 5 -21 -9 -31 -15 -11 -22 -11 -45 3
-16 9 -31 24 -34 34 -6 19 -42 43 -51 34 -3 -3 8 -18 26 -33 34 -30 39 -43 16
-43 -8 0 -15 3 -15 8 0 4 -17 18 -37 31 -52 32 -78 68 -63 86 8 10 18 11 36 5
24 -9 35 2 14 15 -18 11 -11 24 38 73 97 96 175 182 166 182 -10 0 -58 -45
-156 -147 -49 -51 -71 -67 -82 -61 -12 7 -14 3 -13 -18 1 -16 -5 -31 -16 -38
-16 -9 -28 -1 -92 68 -67 72 -84 107 -51 106 12 -1 46 -24 46 -32 0 -3 18 -24
40 -48 46 -50 47 -48 29 76 -11 71 -13 76 -26 58 -14 -18 -15 -18 -8 6 7 26
20 39 155 160 46 41 100 89 119 106 19 17 30 33 25 37 -6 3 -41 -24 -79 -59
-222 -207 -231 -213 -206 -152 6 13 12 40 16 60 3 21 10 37 15 35 13 -3 136
127 143 152 7 28 -8 69 -31 88 -12 10 -14 16 -5 19 7 3 70 51 139 107 69 56
136 109 148 117 39 27 70 60 56 60 -7 0 -38 -21 -68 -47 -30 -26 -67 -56 -82
-67 -73 -54 -151 -115 -165 -130 -22 -22 -46 -20 -52 4 -3 11 -9 20 -14 20
-13 0 -39 69 -39 104 0 28 8 38 65 79 36 26 68 47 73 47 4 0 18 10 32 21 14
11 68 49 120 84 52 36 106 73 120 82 14 9 57 37 95 62 39 25 83 56 98 68 34
27 47 29 47 6z m3744 -45 c28 -18 58 -38 66 -45 8 -7 80 -57 160 -110 80 -53
178 -120 219 -147 41 -28 90 -61 110 -72 21 -13 37 -31 39 -44 4 -24 -32 -102
-55 -121 -7 -6 -13 -18 -13 -25 0 -21 -22 -17 -54 11 -16 14 -32 25 -35 25 -3
0 -19 12 -36 28 -16 15 -48 40 -69 56 -22 16 -55 44 -73 63 -19 18 -41 33 -48
33 -8 0 -18 7 -23 16 -4 8 -20 23 -34 32 -21 14 -161 120 -203 154 -72 59 -69
55 -53 80 8 13 20 40 27 61 7 20 15 37 18 37 4 0 29 -14 57 -32z m-55 -163
c34 -30 67 -55 74 -55 7 0 25 -16 41 -35 16 -19 33 -35 38 -35 16 0 187 -135
248 -195 14 -14 30 -25 36 -25 5 0 25 -16 44 -35 19 -19 39 -35 45 -35 25 0
33 -21 19 -48 -8 -15 -14 -34 -14 -43 0 -19 139 -171 150 -164 4 3 10 -8 13
-23 4 -15 12 -53 18 -84 7 -32 10 -60 7 -63 -3 -4 -39 26 -79 65 -41 39 -79
74 -85 78 -23 14 -96 78 -165 145 -38 37 -75 67 -81 67 -14 -1 68 -80 190
-187 40 -35 80 -71 90 -81 9 -9 39 -35 66 -57 l48 -39 -6 -63 c-4 -35 -11 -74
-16 -88 -6 -15 -6 -27 0 -30 12 -8 79 66 80 88 0 23 27 22 40 -3 9 -17 0 -30
-65 -95 -41 -41 -79 -75 -83 -75 -4 0 -14 4 -22 10 -12 8 -12 11 3 28 9 10 17
29 17 43 0 24 0 24 -25 -6 l-25 -30 -162 166 c-90 92 -223 228 -296 303 -73
76 -137 136 -142 134 -5 -2 66 -80 158 -175 273 -280 383 -396 378 -400 -6 -6
-183 26 -231 42 -23 8 -60 31 -81 51 -22 19 -59 48 -84 62 -25 15 -53 37 -63
49 -10 13 -24 29 -30 36 -26 27 -85 103 -95 124 -7 12 -12 37 -12 55 -1 18 -7
51 -15 73 -8 22 -18 72 -21 110 -5 68 -5 69 13 50 30 -32 53 -49 53 -37 0 6
-18 29 -40 50 l-41 39 3 101 3 101 65 -55 c99 -84 165 -143 236 -211 36 -35
70 -63 77 -63 7 0 -22 33 -63 73 -67 65 -104 98 -269 243 l-44 39 6 72 c5 73
11 93 26 93 5 0 36 -25 70 -55z m-3631 -721 c-1 -70 -21 -104 -59 -104 -10 0
-44 -13 -75 -30 -59 -30 -75 -33 -52 -9 7 8 31 36 53 63 43 54 126 146 131
146 2 0 3 -30 2 -66z m193 -303 c-12 -16 -21 -31 -21 -34 0 -7 -63 -111 -71
-117 -8 -6 -42 -62 -65 -107 -9 -18 -20 -33 -25 -33 -5 0 -14 -11 -19 -24 -11
-30 -82 -140 -92 -144 -5 -2 -8 -9 -8 -16 0 -7 -23 -48 -52 -92 -29 -43 -59
-92 -68 -108 -8 -17 -19 -31 -25 -33 -16 -4 -68 76 -75 119 -6 31 -4 41 8 45
8 4 21 -2 28 -12 14 -18 14 -18 14 1 0 10 -7 32 -15 48 -8 15 -15 33 -15 40 0
6 -5 18 -10 26 -9 13 -11 13 -20 0 -8 -12 -10 -11 -10 6 0 27 19 43 103 88 73
39 85 47 126 86 14 14 71 64 126 112 55 47 120 106 145 131 52 51 70 59 41 18z
m4045 -81 c5 0 15 -9 22 -20 11 -18 6 -24 -44 -61 -63 -46 -84 -46 -34 1 18
17 30 34 26 37 -4 4 -22 -8 -40 -27 -18 -19 -42 -42 -53 -51 -11 -9 -23 -23
-25 -30 -6 -19 -38 -3 -38 19 0 11 7 25 15 32 8 7 14 25 12 42 -2 27 1 30 31
33 18 1 47 14 65 28 27 22 34 23 43 11 6 -8 15 -14 20 -14z m-96 -389 c-11
-28 -20 -63 -20 -77 0 -13 -4 -32 -9 -42 -5 -9 -15 -32 -21 -49 -7 -18 -19
-33 -26 -33 -18 0 -18 -9 1 -30 10 -11 12 -24 6 -45 -6 -24 -12 -29 -31 -27
-22 4 -22 1 -18 -47 4 -37 0 -58 -13 -80 -10 -16 -24 -48 -32 -71 l-14 -42
-22 37 -22 37 37 74 c20 41 38 90 39 109 1 19 9 43 18 53 10 10 17 24 17 30 0
7 7 12 15 12 12 0 13 4 5 19 -14 28 -12 67 5 81 8 6 17 22 21 33 4 12 19 40
33 62 15 22 31 49 36 60 7 16 9 17 12 4 2 -9 -5 -39 -17 -68z m-4586 -225 c9
-21 16 -47 16 -57 0 -11 14 -49 30 -86 28 -61 29 -68 15 -90 -9 -12 -19 -23
-23 -23 -4 0 -18 19 -30 43 -17 30 -22 55 -20 87 3 42 1 45 -19 43 -13 -2 -23
1 -23 5 0 4 -4 34 -10 66 -9 54 -8 61 13 82 l22 23 6 -27 c3 -15 13 -44 23
-66z m4102 -393 c32 -65 59 -124 59 -131 0 -7 6 -17 14 -21 15 -9 10 -42 -12
-93 -13 -31 -31 -38 -23 -10 13 48 17 82 8 82 -13 0 -22 -25 -22 -58 0 -34
-49 -241 -65 -271 -12 -23 -13 -23 -39 34 -14 31 -26 60 -26 64 0 3 -14 33
-30 66 -34 68 -36 97 -14 198 17 80 76 257 85 257 3 0 32 -53 65 -117z m-2701
-163 c-14 -63 -30 -140 -36 -170 -6 -33 -18 -62 -31 -72 -17 -15 -18 -18 -3
-18 11 0 15 -6 11 -17 -2 -10 -15 -65 -27 -123 -20 -89 -28 -109 -54 -133 -22
-21 -24 -25 -8 -17 12 5 24 10 26 10 5 0 -31 -194 -43 -236 -6 -17 -10 -39
-10 -50 0 -11 -13 -30 -29 -42 l-29 -21 -5 52 c-9 92 4 204 24 223 11 10 19
22 19 28 0 6 -5 5 -12 -2 -23 -23 -29 -12 -23 41 4 28 6 76 6 106 0 29 5 63
10 74 8 14 8 22 -1 27 -14 9 -11 23 33 135 41 105 74 162 103 182 14 8 23 21
22 27 -3 12 71 120 78 114 2 -2 -8 -55 -21 -118z m-1175 -60 c28 -15 75 -101
76 -142 1 -20 9 -47 18 -60 9 -12 16 -39 16 -60 0 -20 5 -40 10 -43 6 -3 10
-11 10 -16 0 -6 -4 -8 -9 -5 -16 10 -41 -5 -41 -25 0 -10 -4 -19 -8 -19 -9 0
-32 44 -32 60 0 29 -38 92 -62 103 -22 9 -26 16 -21 35 3 12 0 43 -7 69 -12
40 -11 49 5 79 20 38 20 38 45 24z m309 -22 c-1 -7 3 -24 8 -38 29 -66 36 -95
62 -258 22 -129 27 -182 19 -202 l-9 -28 -43 43 c-92 92 -119 150 -87 189 7 8
10 20 6 26 -10 16 -45 12 -45 -5 0 -20 -24 -19 -41 1 -11 13 -8 25 19 78 18
35 32 66 32 69 0 16 64 137 72 137 5 0 8 -6 7 -12z m3720 -45 c13 -27 24 -68
25 -93 1 -39 -2 -45 -24 -50 -20 -5 -29 -17 -43 -60 -9 -30 -26 -66 -37 -80
l-20 -25 3 25 c2 21 -2 25 -25 25 -30 -1 -37 12 -12 22 11 4 13 13 9 34 -4 17
0 39 9 58 9 16 16 46 16 66 0 19 6 45 13 58 15 28 49 67 57 67 3 0 16 -21 29
-47z m-294 -83 c42 -103 46 -120 30 -136 -10 -10 -12 -28 -8 -62 l5 -48 -71
-74 c-39 -41 -71 -79 -71 -83 0 -5 -7 -15 -16 -24 -14 -14 -15 -11 -10 33 3
27 10 72 15 99 6 28 15 92 21 143 9 82 36 192 56 223 9 16 19 2 49 -71z
m-2809 -332 c-3 -56 -11 -107 -16 -112 -6 -6 -10 -27 -10 -48 0 -21 -5 -38
-10 -38 -7 0 -7 -6 0 -20 9 -17 8 -20 -9 -20 -11 0 -21 -4 -23 -8 -4 -12 -68
-23 -68 -12 0 5 5 12 10 15 6 4 8 11 4 16 -3 5 10 16 28 24 18 8 25 14 16 15
-9 0 -20 5 -23 11 -6 9 33 123 70 204 7 17 16 40 20 53 14 47 18 18 11 -80z
m2179 59 c4 -17 16 -52 27 -77 23 -49 58 -148 58 -162 0 -4 -10 -8 -22 -8 -28
0 -12 -17 21 -22 18 -2 25 -10 27 -30 1 -16 2 -28 0 -28 -1 0 -25 7 -52 15
l-50 14 -2 58 c-1 31 -7 60 -12 63 -5 3 -12 55 -16 114 -5 77 -4 107 4 102 6
-3 13 -21 17 -39z m-2873 -6 c18 -16 51 -65 73 -110 32 -67 37 -84 25 -91 -11
-7 -11 -11 -1 -23 9 -12 10 -25 1 -56 -6 -23 -13 -41 -15 -41 -6 0 -65 120
-65 132 0 6 11 7 28 3 25 -6 25 -5 -8 17 -41 27 -89 117 -90 166 0 40 10 40
52 3z m3596 4 c10 -51 -56 -175 -94 -175 -14 0 -47 -30 -40 -37 2 -3 16 3 30
12 31 20 35 7 11 -39 -8 -15 -15 -32 -15 -37 0 -6 -21 -54 -47 -108 -32 -66
-57 -103 -75 -114 -15 -8 -43 -38 -63 -66 -39 -54 -62 -67 -50 -28 4 12 13 42
20 67 16 54 90 206 105 215 6 4 15 -7 21 -24 6 -17 15 -31 21 -31 6 0 7 8 3
18 -30 71 -30 68 1 96 23 20 26 28 15 35 -11 7 -9 18 12 57 14 27 35 70 46 96
20 45 66 90 86 84 6 -1 12 -11 13 -21z m-3433 -297 c9 -18 35 -71 60 -117 48
-92 82 -187 70 -199 -4 -4 -14 4 -24 16 -25 36 -99 112 -110 112 -8 0 -49 81
-62 125 -6 22 25 95 41 95 5 0 17 -15 25 -32z m351 -13 c3 -25 3 -62 -1 -82
-4 -21 -8 -56 -9 -78 -1 -48 -11 -65 -35 -65 -14 0 -20 -11 -25 -45 -4 -25
-15 -50 -25 -57 -9 -7 -21 -22 -25 -33 l-7 -20 -15 20 c-8 11 -17 31 -20 45
-3 14 -11 38 -19 53 -29 56 -30 102 -2 149 29 48 83 108 98 108 12 0 12 -1 -5
-52 -22 -68 -28 -100 -17 -94 9 6 23 49 51 154 8 31 16 42 30 42 15 0 20 -10
26 -45z m160 -90 c-2 -47 -8 -90 -12 -96 -3 -6 -6 -36 -5 -67 1 -71 -5 -93
-26 -85 -11 4 -14 2 -9 -5 9 -15 -12 -15 -70 -1 l-45 12 6 41 c7 40 14 75 35
155 6 21 8 45 5 53 -9 22 42 53 61 37 11 -9 14 -8 14 8 0 25 8 33 32 33 18 0
19 -6 14 -85z"/>
<path d="M5880 3104 c0 -6 54 -130 130 -299 29 -64 77 -177 90 -210 4 -11 21
-49 38 -85 16 -36 36 -81 43 -100 7 -19 18 -42 24 -50 7 -8 16 -26 20 -40 7
-23 83 -190 91 -199 2 -2 6 -2 9 1 5 5 -36 109 -46 118 -4 3 -10 16 -14 30 -4
14 -22 57 -40 95 -66 139 -98 211 -115 261 -10 29 -27 69 -39 90 -11 22 -41
89 -67 149 -26 61 -50 115 -54 120 -4 6 -17 36 -30 68 -12 31 -26 57 -31 57
-5 0 -9 -3 -9 -6z"/>
<path d="M8048 9488 c-14 -18 -31 -44 -38 -57 -7 -13 -31 -49 -54 -80 -157
-209 -194 -260 -211 -291 -11 -19 -25 -38 -32 -43 -6 -4 -22 -24 -35 -45 -24
-39 -25 -40 -83 -111 -40 -49 -59 -80 -52 -87 6 -6 74 77 111 136 32 49 46 68
109 150 23 30 55 75 70 99 15 24 53 74 83 111 29 37 54 71 54 75 0 4 16 27 35
51 19 23 35 49 35 57 0 8 6 17 14 20 17 7 41 47 28 47 -6 0 -21 -15 -34 -32z"/>
<path d="M7182 9418 c-23 -39 -91 -165 -139 -258 -33 -64 -37 -71 -63 -120 -8
-14 -31 -59 -53 -100 -21 -41 -43 -79 -47 -85 -5 -5 -35 -62 -67 -125 -60
-116 -79 -153 -94 -180 -5 -8 -20 -38 -33 -67 -14 -28 -30 -54 -35 -58 -6 -3
-11 -13 -11 -22 0 -32 27 8 89 129 34 68 82 161 107 207 24 46 44 90 44 97 0
8 4 14 9 14 6 0 33 46 61 103 28 56 58 109 65 117 8 8 19 28 25 44 6 16 41 84
78 150 87 155 97 175 90 182 -3 3 -15 -10 -26 -28z"/>
<path d="M922 9371 c14 -20 274 -297 296 -315 7 -6 24 -22 37 -36 360 -375
616 -632 622 -626 3 3 -36 47 -86 98 -51 51 -188 191 -304 311 -117 121 -239
247 -272 281 -33 33 -112 116 -177 184 -108 113 -148 149 -116 103z"/>
<path d="M7380 9108 c-18 -29 -53 -83 -77 -120 -24 -37 -43 -69 -43 -72 0 -2
-18 -32 -40 -65 -22 -33 -40 -63 -40 -66 0 -3 -15 -27 -32 -53 -46 -68 -57
-85 -65 -102 -3 -8 -16 -28 -27 -45 -25 -35 -41 -61 -58 -95 -7 -14 -36 -60
-65 -103 -29 -43 -53 -81 -53 -86 0 -4 -9 -16 -20 -26 -11 -10 -20 -22 -20
-26 0 -4 -13 -27 -29 -51 -48 -72 -73 -120 -59 -116 7 3 18 13 23 24 6 11 44
73 85 137 41 65 91 144 110 175 19 32 55 89 80 127 24 39 53 86 63 105 11 19
25 42 33 51 8 8 14 19 14 23 0 4 8 19 19 34 23 34 91 139 111 172 8 14 24 40
35 58 11 19 37 61 58 93 21 33 37 65 35 70 -2 6 -19 -13 -38 -43z"/>
<path d="M6037 9023 c-20 -65 -37 -126 -37 -135 0 -9 -4 -20 -10 -23 -5 -3
-10 -15 -10 -26 0 -10 -25 -103 -56 -206 -31 -104 -60 -207 -65 -231 -4 -23
-13 -51 -19 -61 -5 -11 -10 -28 -10 -38 0 -10 -6 -30 -13 -44 -8 -14 -17 -43
-20 -65 -4 -23 -21 -85 -37 -140 -17 -54 -35 -115 -40 -134 -5 -19 -12 -45
-15 -57 -4 -13 -2 -23 3 -23 5 0 14 19 20 43 6 23 16 62 22 87 6 25 16 54 20
65 8 18 16 46 49 170 10 38 56 190 82 270 10 34 23 81 28 105 15 71 46 179 54
186 4 4 7 17 7 29 0 12 13 64 29 116 55 179 63 209 59 220 -2 6 -20 -43 -41
-108z"/>
<path d="M8595 8989 c-60 -67 -229 -242 -375 -389 -230 -233 -372 -380 -673
-694 -37 -38 -64 -72 -61 -75 4 -5 176 168 239 241 12 12 43 43 70 68 28 25
93 93 145 150 52 57 212 222 355 365 278 279 408 418 413 441 2 8 2 14 0 14
-2 -1 -52 -55 -113 -121z"/>
<path d="M3290 8921 c0 -6 25 -63 55 -126 30 -64 55 -119 55 -124 0 -4 6 -21
14 -37 7 -16 37 -83 67 -149 60 -138 91 -205 148 -328 23 -49 41 -92 41 -97 0
-4 14 -35 30 -68 17 -34 30 -65 30 -69 0 -18 83 -177 87 -166 2 6 -14 49 -35
95 -22 45 -43 94 -47 108 -4 14 -48 109 -96 212 -49 103 -89 193 -89 201 0 8
-6 20 -14 26 -8 7 -18 27 -22 44 -3 17 -10 38 -15 47 -21 37 -73 151 -100 219
-16 40 -41 94 -54 119 -14 26 -25 54 -25 63 0 9 -7 22 -15 29 -11 9 -15 9 -15
1z"/>
<path d="M910 8844 c0 -9 83 -89 165 -159 32 -27 66 -57 74 -65 59 -55 169
-156 241 -220 46 -41 98 -88 116 -105 17 -16 57 -52 88 -80 116 -102 338 -301
485 -434 114 -104 198 -180 316 -286 99 -89 161 -144 284 -255 46 -41 88 -77
95 -79 15 -6 -100 111 -148 148 -35 28 -202 179 -245 222 -9 9 -77 70 -151
136 -74 66 -153 137 -175 157 -22 20 -71 64 -109 99 -38 34 -90 81 -115 104
-25 23 -68 61 -96 84 -27 23 -54 48 -60 54 -5 7 -44 41 -85 77 -41 35 -89 78
-106 94 -17 16 -48 45 -70 65 -21 19 -71 64 -110 100 -39 35 -99 89 -134 119
-72 63 -161 143 -199 180 -38 37 -61 54 -61 44z"/>
<path d="M6211 8682 c-6 -12 -11 -26 -11 -32 0 -9 -38 -104 -90 -225 -4 -11
-18 -54 -30 -95 -23 -80 -31 -102 -61 -165 -10 -22 -23 -58 -30 -80 -6 -22
-27 -80 -46 -130 -49 -126 -48 -125 -66 -175 -8 -25 -21 -61 -28 -80 -6 -19
-15 -44 -20 -55 -4 -11 -17 -47 -29 -80 -11 -33 -24 -69 -29 -80 -15 -36 -71
-192 -71 -199 0 -19 18 -2 27 27 6 17 23 64 38 102 15 39 36 97 46 130 11 33
23 67 26 75 22 55 79 209 163 440 21 58 48 130 60 160 12 30 31 84 42 120 11
36 24 70 28 75 5 6 16 37 25 70 10 33 24 69 31 80 15 24 46 127 40 133 -3 2
-9 -5 -15 -16z"/>
<path d="M7791 8594 c-1 -5 -37 -49 -81 -97 -44 -48 -80 -91 -80 -95 0 -4 -31
-41 -70 -82 -38 -41 -69 -79 -70 -84 0 -4 -11 -17 -25 -28 -14 -11 -25 -23
-25 -28 0 -5 -16 -26 -35 -47 -19 -21 -67 -76 -106 -123 -38 -47 -87 -105
-107 -130 -20 -24 -57 -66 -80 -92 -24 -26 -42 -52 -40 -57 3 -9 50 42 171
183 23 27 48 58 56 70 8 12 33 42 55 67 53 60 130 149 136 159 13 19 77 94 98
113 12 11 22 24 22 28 0 3 18 26 40 50 22 24 40 47 40 51 0 3 19 27 43 51 60
64 69 76 64 90 -3 7 -6 7 -6 1z"/>
<path d="M8940 8334 c0 -5 -17 -18 -37 -29 -20 -11 -42 -25 -48 -32 -19 -18
-138 -117 -161 -133 -18 -13 -86 -66 -209 -165 -55 -44 -154 -119 -261 -200
-59 -44 -116 -90 -128 -103 -11 -12 -43 -37 -70 -55 -28 -17 -58 -39 -67 -47
-39 -36 -100 -84 -301 -239 -46 -36 -87 -70 -91 -78 -4 -7 -13 -13 -18 -13 -6
0 -32 -18 -58 -40 -26 -22 -50 -40 -54 -40 -3 0 -17 -10 -31 -22 -53 -50 -120
-103 -135 -110 -9 -4 -41 -28 -71 -52 -30 -25 -83 -66 -118 -91 -34 -26 -72
-56 -85 -68 -12 -12 -33 -29 -46 -38 -14 -9 -20 -18 -14 -22 5 -3 23 6 39 21
16 15 56 48 89 72 33 25 66 51 73 58 7 6 16 12 20 12 4 0 30 21 57 45 28 25
55 45 60 45 6 0 28 17 50 38 22 21 59 51 83 67 23 15 42 32 42 36 0 5 6 9 13
9 7 0 23 10 37 23 14 12 43 36 65 52 22 17 46 38 53 47 7 10 17 18 23 18 9 0
144 105 213 165 16 14 56 45 88 68 32 23 120 91 196 151 75 59 171 134 212
165 109 82 410 322 436 348 7 7 16 13 21 13 10 0 143 107 144 116 0 3 -2 8 -5
12 -3 3 -6 1 -6 -4z"/>
<path d="M8865 7861 c-3 -6 -27 -24 -53 -42 -105 -72 -279 -187 -317 -209 -22
-13 -50 -33 -61 -44 -19 -18 -103 -75 -245 -166 -48 -31 -390 -262 -404 -273
-20 -16 -111 -76 -140 -93 -16 -9 -55 -35 -85 -58 -30 -22 -111 -78 -180 -123
-69 -46 -133 -89 -143 -96 -43 -28 -124 -87 -147 -106 -53 -44 15 -7 100 54
47 34 103 72 125 85 22 13 42 26 45 30 6 6 64 45 143 94 31 20 57 40 57 46 0
5 5 10 11 10 14 0 223 139 227 151 2 5 8 9 14 9 6 0 26 11 44 25 18 14 37 25
42 25 6 0 12 3 14 8 2 4 26 22 53 39 54 35 73 48 184 126 40 29 92 63 116 77
23 14 49 30 57 37 7 6 58 42 113 78 55 37 102 70 105 74 3 3 22 14 43 23 20
10 37 21 37 26 0 5 19 19 43 32 54 30 181 120 185 132 2 4 9 8 17 8 7 0 18 7
25 15 10 12 10 15 -3 15 -9 0 -18 -4 -22 -9z"/>
<path d="M8810 7445 c-7 -8 -17 -15 -22 -15 -5 0 -21 -8 -36 -18 -43 -30 -132
-83 -192 -115 -50 -26 -94 -52 -171 -97 -14 -8 -57 -33 -95 -54 -167 -95 -275
-161 -266 -164 9 -3 91 41 177 94 22 14 58 33 81 44 22 11 52 29 67 40 14 11
41 27 59 35 18 9 42 21 53 27 11 7 36 22 55 34 19 11 67 38 105 59 39 21 94
53 123 72 29 18 56 33 60 33 4 0 18 9 32 20 24 19 24 20 4 20 -12 0 -27 -7
-34 -15z"/>
<path d="M8680 7036 c-160 -80 -380 -188 -595 -291 -153 -74 -151 -73 -143
-80 6 -6 129 51 503 235 132 65 275 134 317 155 75 35 104 56 76 54 -7 -1 -78
-34 -158 -73z"/>
<path d="M8795 6764 c-22 -8 -49 -18 -60 -21 -11 -3 -24 -9 -30 -13 -5 -4 -28
-13 -50 -20 -22 -7 -44 -16 -50 -20 -5 -4 -39 -18 -75 -30 -98 -35 -123 -44
-150 -60 -14 -8 -27 -15 -30 -15 -4 0 -186 -70 -245 -94 -37 -16 -100 -39
-117 -45 -10 -3 -18 -10 -18 -17 0 -6 6 -9 13 -6 6 3 55 21 107 42 118 46 126
49 172 69 20 9 39 16 43 16 6 0 25 8 152 66 29 13 65 26 80 30 16 4 33 10 38
14 6 4 48 21 95 39 134 52 164 64 175 73 14 12 -4 9 -50 -8z"/>
<path d="M1165 6729 c40 -20 88 -40 285 -119 58 -24 110 -46 115 -50 6 -4 28
-13 50 -19 22 -7 63 -21 90 -33 28 -11 59 -24 70 -29 11 -4 46 -19 77 -33 31
-14 63 -26 70 -26 8 0 18 -4 23 -9 6 -5 28 -14 50 -21 22 -7 63 -23 90 -36 28
-12 68 -28 90 -34 22 -7 61 -23 88 -36 26 -13 47 -19 47 -13 0 10 -29 24 -135
64 -38 15 -83 33 -100 40 -86 38 -128 55 -136 55 -5 0 -42 16 -83 35 -41 19
-80 35 -85 35 -6 0 -25 6 -43 14 -52 22 -96 40 -188 76 -79 31 -155 64 -223
96 -16 8 -34 14 -40 14 -7 0 -34 12 -62 25 -27 14 -59 25 -70 25 -14 -1 -7 -7
20 -21z"/>
<path d="M7870 6640 c-8 -5 -31 -16 -50 -25 -19 -8 -42 -19 -50 -25 -8 -6 -31
-17 -50 -25 -19 -9 -42 -19 -50 -24 -20 -12 -351 -172 -460 -223 -156 -73
-237 -118 -212 -118 13 0 321 146 382 181 19 11 60 31 90 45 30 14 132 63 225
110 94 46 175 84 180 84 6 0 19 7 29 15 20 15 20 15 0 14 -10 0 -26 -4 -34 -9z"/>
<path d="M8820 6472 c-14 -1 -34 -7 -45 -13 -11 -5 -51 -19 -90 -30 -38 -11
-90 -27 -115 -34 -25 -7 -76 -25 -115 -40 -38 -15 -86 -31 -105 -37 -53 -14
-362 -117 -385 -127 -11 -5 -58 -19 -105 -31 -47 -12 -89 -25 -95 -29 -5 -5
-44 -18 -85 -30 -41 -13 -97 -31 -124 -42 -27 -10 -57 -19 -67 -19 -10 0 -20
-4 -23 -9 -3 -4 -34 -16 -68 -26 -124 -34 -338 -107 -338 -115 0 -9 93 14 121
30 9 5 33 12 53 15 20 4 39 11 42 16 3 5 13 9 23 9 26 0 153 41 176 56 11 8
27 14 36 14 20 0 290 89 304 100 6 5 24 10 40 13 17 3 46 11 65 17 41 14 50
17 235 76 77 25 163 53 190 63 28 11 88 31 135 46 47 14 94 30 105 34 11 5 45
16 75 24 95 27 171 51 183 59 16 10 6 14 -23 10z"/>
<path d="M8795 6170 c-11 -5 -34 -9 -52 -9 -17 -1 -35 -5 -38 -11 -3 -5 -19
-10 -36 -10 -16 0 -62 -9 -102 -21 -100 -28 -394 -103 -527 -134 -30 -7 -116
-28 -190 -47 -74 -20 -146 -38 -160 -41 -108 -23 -206 -58 -160 -57 8 1 164
39 345 86 410 105 404 104 440 108 17 2 66 14 110 26 44 12 98 26 120 30 22 4
51 12 65 18 22 10 131 35 213 50 15 2 30 8 33 13 7 11 -34 10 -61 -1z"/>
<path d="M970 5910 c0 -6 42 -16 220 -51 30 -5 89 -15 130 -20 41 -5 86 -13
100 -18 14 -6 57 -15 95 -21 39 -6 131 -21 205 -34 74 -14 189 -34 255 -45 66
-12 153 -28 192 -37 40 -8 87 -14 105 -12 28 3 24 5 -27 16 -33 6 -82 17 -110
22 -27 6 -153 29 -280 51 -126 22 -250 44 -275 49 -25 4 -126 22 -225 39 -99
17 -214 38 -255 45 -114 22 -130 24 -130 16z"/>
<path d="M8735 5884 c-65 -14 -400 -72 -455 -80 -14 -2 -61 -10 -105 -19 -44
-8 -97 -18 -118 -21 -21 -4 -40 -11 -44 -17 -3 -6 5 -8 23 -5 224 37 370 64
374 68 3 3 28 6 55 8 28 1 66 6 85 11 19 5 69 15 110 21 126 19 195 33 205 42
13 12 -50 8 -130 -8z"/>
<path d="M8848 5625 c-5 -5 -324 -37 -393 -40 -22 -1 -62 -6 -90 -12 -27 -7
-99 -14 -159 -17 -124 -7 -236 -24 -236 -36 0 -9 9 -8 145 10 39 5 108 12 155
15 47 3 124 12 172 20 48 9 90 14 95 13 36 -10 333 30 333 44 0 9 -14 11 -22
3z"/>
<path d="M7705 5505 c-121 -12 -254 -26 -295 -29 -41 -4 -84 -9 -95 -12 -11
-2 -110 -13 -219 -24 -110 -11 -202 -23 -205 -25 -14 -15 18 -17 91 -7 46 7
115 14 153 17 39 3 102 10 140 15 39 5 97 12 130 15 112 10 256 25 443 46 56
6 102 15 102 20 0 5 -6 8 -12 8 -7 -1 -112 -12 -233 -24z"/>
<path d="M1005 5341 c42 -9 223 -17 580 -26 116 -3 260 -7 320 -10 61 -2 198
-7 305 -10 107 -3 206 -8 218 -11 17 -3 23 -1 20 8 -3 7 -20 13 -39 14 -423
10 -617 16 -919 29 -249 10 -523 14 -485 6z"/>
<path d="M3489 5166 c-2 -2 -110 -7 -239 -11 -129 -3 -282 -8 -340 -11 -104
-4 -148 -6 -550 -19 -113 -4 -209 -12 -215 -17 -9 -9 426 -3 465 7 8 2 121 6
250 10 482 12 650 22 650 36 0 9 -13 12 -21 5z"/>
<path d="M1767 5104 c-1 -1 -83 -5 -182 -8 -99 -3 -261 -9 -360 -12 -99 -4
-198 -10 -220 -14 -40 -8 396 -3 510 5 32 3 113 5 180 5 133 1 195 8 195 22 0
7 -115 9 -123 2z"/>
<path d="M7924 5102 c3 -5 34 -10 68 -11 35 -1 104 -4 153 -6 50 -3 171 -7
270 -9 99 -3 246 -8 328 -12 98 -4 147 -3 147 4 0 10 -120 17 -460 27 -96 3
-251 8 -344 11 -107 4 -166 2 -162 -4z"/>
<path d="M2567 4964 c-3 -4 -60 -10 -127 -15 -135 -9 -173 -13 -350 -34 -191
-22 -396 -43 -490 -50 -47 -3 -108 -10 -135 -16 -28 -5 -82 -11 -120 -13 -39
-2 -104 -9 -145 -15 -41 -6 -105 -13 -143 -17 -37 -3 -67 -10 -67 -15 0 -11 2
-11 92 1 40 5 100 12 133 15 33 3 74 7 90 9 17 2 71 7 120 11 50 3 153 15 230
25 77 10 221 26 320 34 99 9 207 21 240 26 33 6 92 12 130 15 39 2 108 9 155
14 47 6 91 11 98 11 7 0 10 5 7 10 -7 11 -28 13 -38 4z"/>
<path d="M7590 4741 c0 -10 35 -21 72 -21 14 0 95 -14 180 -31 84 -17 171 -32
193 -34 45 -4 145 -22 190 -35 17 -5 102 -20 190 -34 88 -14 183 -30 210 -36
268 -52 265 -51 265 -40 0 5 -17 12 -37 16 -21 3 -92 16 -158 29 -66 13 -154
28 -195 35 -41 6 -102 18 -135 26 -33 7 -105 20 -160 29 -141 21 -214 33 -233
39 -10 3 -35 8 -57 11 -84 12 -105 15 -201 35 -112 22 -124 24 -124 11z"/>
<path d="M1880 4453 c-14 -2 -45 -10 -70 -18 -25 -8 -85 -24 -135 -35 -94 -22
-115 -27 -230 -59 -38 -10 -95 -24 -125 -31 -30 -7 -95 -23 -145 -37 -49 -14
-99 -26 -110 -27 -34 -3 -75 -18 -75 -27 0 -12 5 -12 90 12 104 28 135 36 215
55 39 8 77 18 85 21 8 4 49 14 90 23 117 27 300 73 395 99 57 16 67 31 15 24z"/>
<path d="M4647 3092 c-3 -4 -13 -67 -22 -141 -9 -74 -18 -137 -20 -141 -2 -4
-11 -62 -19 -129 -9 -67 -18 -126 -21 -130 -2 -5 -7 -39 -10 -77 -3 -38 -9
-98 -15 -134 -5 -36 -16 -110 -24 -165 -8 -55 -23 -165 -35 -245 -42 -296 -81
-586 -81 -604 0 -12 3 -16 9 -10 8 8 26 125 52 334 24 189 30 231 44 325 9 55
18 120 20 145 2 25 7 55 10 68 3 13 10 55 15 95 6 40 15 101 20 137 6 36 15
103 20 150 10 86 17 141 43 310 28 180 32 242 14 212z"/>
<path d="M4785 2958 c-5 -62 -9 -131 -11 -153 -1 -22 -5 -56 -7 -75 -3 -19 -9
-99 -12 -178 -3 -79 -8 -149 -10 -155 -2 -7 -6 -64 -10 -127 -3 -63 -10 -176
-16 -250 -5 -74 -12 -162 -14 -195 -2 -33 -6 -89 -10 -125 -5 -67 -7 -97 -25
-389 -6 -96 -15 -226 -20 -290 -6 -64 -15 -192 -20 -285 -6 -92 -13 -191 -16
-220 -10 -102 -12 -166 -4 -171 9 -6 16 72 40 415 5 80 13 181 16 225 4 44 6
87 6 95 0 8 4 65 9 125 5 61 11 148 14 195 3 47 8 121 11 165 3 44 7 100 9
125 1 25 7 108 13 185 6 77 11 147 11 155 0 8 2 40 5 70 9 93 26 320 31 425 9
158 15 261 25 385 12 143 12 160 1 160 -4 0 -12 -51 -16 -112z"/>
<path d="M4941 2310 c-1 -490 3 -760 9 -760 6 0 10 222 10 620 0 341 0 623 1
627 6 36 -3 273 -10 273 -6 0 -10 -305 -10 -760z"/>
<path d="M4302 2978 c-12 -40 -25 -86 -28 -103 -4 -16 -17 -61 -29 -100 -12
-38 -33 -110 -45 -160 -12 -49 -26 -94 -30 -100 -7 -10 -28 -82 -56 -200 -8
-33 -23 -85 -33 -115 -11 -30 -28 -90 -40 -132 -52 -193 -65 -229 -83 -239
-10 -5 -24 -7 -30 -3 -7 4 -8 3 -4 -4 4 -7 14 -12 22 -12 13 0 14 -8 9 -42 -4
-24 -12 -51 -17 -62 -7 -13 -7 -17 3 -14 6 2 18 29 26 58 8 30 18 57 23 58 6
2 10 16 10 32 0 15 9 56 20 91 12 35 29 96 40 134 10 39 25 90 33 115 8 25 29
99 47 165 18 66 46 160 61 208 16 49 29 95 29 104 0 16 15 67 31 108 4 11 13
45 20 75 6 30 15 62 20 71 13 25 37 139 29 139 -3 0 -16 -33 -28 -72z"/>
<path d="M5098 3014 c-4 -3 -5 -11 -3 -17 4 -12 31 -380 41 -557 2 -47 8 -130
13 -185 5 -55 9 -111 8 -125 0 -14 7 -117 16 -230 9 -113 19 -252 22 -310 3
-58 10 -157 15 -220 10 -123 19 -262 25 -375 2 -38 6 -90 9 -115 3 -25 8 -97
11 -160 3 -63 10 -148 16 -188 5 -40 9 -105 9 -143 0 -44 4 -69 11 -69 12 0
10 60 -10 290 -9 108 -18 233 -26 387 -3 38 -13 194 -24 348 -11 154 -23 321
-26 370 -3 50 -10 146 -16 215 -5 69 -12 175 -15 235 -2 61 -7 128 -10 150 -2
22 -7 78 -10 125 -2 47 -9 150 -15 230 -6 80 -13 188 -16 240 -5 90 -12 118
-25 104z"/>
<path d="M5253 2990 c3 -19 10 -71 16 -115 16 -120 50 -362 61 -430 5 -33 16
-116 25 -185 22 -165 25 -181 37 -174 5 3 7 23 3 45 -4 22 -8 49 -10 62 -2 12
-8 49 -14 82 -11 64 -34 225 -56 395 -8 58 -19 139 -25 180 -7 41 -14 93 -17
115 -3 22 -10 45 -15 50 -7 7 -9 -1 -5 -25z"/>
<path d="M5390 2035 c0 -6 12 -95 26 -200 14 -104 28 -215 30 -245 2 -30 9
-70 14 -90 5 -19 16 -91 25 -160 8 -69 23 -171 32 -227 9 -56 14 -106 10 -109
-4 -4 -17 2 -30 14 -26 25 -46 30 -27 7 14 -17 5 -36 -14 -29 -8 3 -17 1 -21
-5 -4 -7 4 -11 19 -11 14 0 26 -5 26 -10 0 -6 10 -8 24 -4 22 5 25 1 39 -58 9
-35 19 -95 22 -135 3 -39 8 -79 12 -89 6 -16 4 -15 -26 2 -21 12 -31 25 -28
36 6 20 -27 53 -42 43 -6 -3 -11 -13 -11 -21 0 -12 -4 -13 -21 -3 -17 9 -23 8
-30 -2 -14 -22 -11 -26 26 -33 21 -4 39 -16 46 -29 11 -19 13 -20 18 -4 6 16
10 15 41 -8 27 -20 37 -35 42 -68 10 -65 9 -107 -3 -107 -6 0 -10 12 -9 27 3
43 2 47 -20 61 -18 11 -21 9 -30 -13 -7 -18 -17 -25 -37 -26 -27 0 -27 -1 -6
-11 21 -10 22 -12 5 -24 -15 -12 -13 -13 21 -14 60 0 92 -29 105 -93 6 -30 8
-64 5 -76 -3 -11 -1 -21 5 -21 5 0 12 -9 15 -20 3 -11 10 -20 16 -20 13 0 15
46 2 54 -5 3 -11 20 -13 38 -3 18 -9 41 -13 52 -8 18 -7 18 19 1 30 -20 82
-90 87 -119 2 -11 10 -21 16 -24 21 -6 27 27 9 47 -9 10 -16 24 -16 31 0 7 -6
21 -13 29 -8 9 -21 34 -30 56 -8 22 -23 58 -33 80 -10 22 -27 87 -39 145 -12
58 -26 105 -32 105 -16 0 -19 6 -26 43 -8 42 8 42 18 0 7 -30 8 -31 12 -9 3
13 -7 45 -21 73 -14 27 -26 63 -26 79 0 16 -4 48 -10 71 -5 24 -26 160 -45
303 -19 143 -38 274 -41 290 -3 17 -7 50 -10 75 -3 25 -10 72 -15 105 -5 33
-14 100 -19 149 -5 49 -13 93 -19 99 -6 6 -11 7 -11 2z"/>
<path d="M4946 1467 c-10 -43 -6 -1161 5 -1150 9 9 15 1161 5 1170 -2 2 -6 -7
-10 -20z"/>
<path d="M700 1432 c0 -11 -11 -34 -25 -50 -13 -16 -20 -33 -16 -38 5 -5 12
-19 16 -31 6 -21 4 -22 -23 -17 l-29 6 1 -86 c1 -47 4 -86 9 -87 37 -4 86 0
102 7 11 5 45 9 75 9 49 0 55 -2 58 -22 3 -18 10 -23 33 -23 24 0 29 4 29 24
0 13 -7 29 -15 36 -17 14 -14 85 4 103 14 14 14 47 1 47 -5 0 -10 -7 -10 -15
0 -21 -28 -7 -36 18 -4 12 -12 25 -18 29 -8 5 -7 11 2 20 18 18 15 27 -10 24
-39 -4 -72 -26 -59 -39 19 -19 12 -35 -20 -46 -52 -18 -79 -14 -81 12 -3 45 3
68 23 88 21 21 21 40 1 47 -7 2 -12 -5 -12 -16z"/>
<path d="M9236 1437 c-5 -11 -2 -27 10 -45 18 -28 21 -79 4 -96 -11 -11 -86 9
-95 25 -4 5 -2 16 4 23 7 9 5 17 -11 30 -14 12 -23 14 -27 7 -4 -7 -19 0 -40
19 -18 17 -42 30 -54 30 -16 0 -9 -7 26 -30 26 -16 47 -33 47 -37 0 -5 -9 -23
-20 -41 -16 -25 -25 -32 -40 -27 -25 8 -25 -2 0 -60 11 -26 20 -48 20 -49 0
-2 -11 -15 -25 -31 -32 -33 -28 -50 11 -50 23 0 30 5 32 23 3 23 6 23 70 16
37 -3 69 -9 72 -13 3 -3 26 -6 53 -6 35 0 47 4 48 15 11 140 5 166 -39 161
-10 -2 -10 4 2 27 14 28 14 31 -9 52 -13 12 -26 34 -28 49 -3 22 -4 23 -11 8z"/>
<path d="M4356 1047 c-6 -21 -13 -27 -27 -24 -11 3 -22 1 -25 -4 -3 -5 7 -9
21 -9 31 0 32 24 -12 -280 -14 -96 -26 -184 -26 -195 -1 -11 -29 -76 -64 -144
-34 -69 -61 -126 -60 -128 2 -1 13 0 25 4 14 3 22 13 22 27 0 12 15 34 35 51
19 17 35 36 35 43 0 6 6 12 13 12 8 0 19 11 25 25 13 28 79 65 117 65 16 0 24
4 20 10 -4 6 -1 17 5 25 10 12 9 15 -2 15 -20 0 -48 32 -48 55 0 37 -33 -11
-39 -56 -4 -30 -14 -48 -33 -62 -15 -11 -30 -18 -33 -15 -8 7 20 120 36 145 7
12 23 26 36 32 13 6 23 18 23 27 0 13 -5 12 -27 -6 l-28 -22 -3 37 c-3 28 2
43 19 61 12 13 19 27 15 31 -4 4 -11 1 -15 -6 -5 -7 -11 -9 -14 -4 -3 5 -2 15
4 23 5 8 9 23 9 33 0 9 14 47 32 83 34 69 53 84 111 84 24 0 28 3 17 10 -8 5
-25 10 -38 10 -13 0 -20 4 -17 10 9 15 -1 12 -33 -7 -17 -11 -26 -25 -24 -35
3 -17 -47 -113 -55 -105 -2 3 1 34 7 69 6 35 10 82 8 104 -4 38 -4 38 -12 11z"/>
<path d="M832 808 c-4 -76 -29 -88 -78 -38 -33 33 -83 40 -104 15 -20 -24 0
-38 35 -25 40 15 64 -8 47 -44 -10 -22 -9 -27 9 -36 11 -6 17 -15 14 -20 -7
-11 5 -40 16 -40 5 0 9 11 9 25 0 36 29 32 37 -5 3 -16 10 -30 14 -30 5 0 7
11 3 24 -7 30 4 55 16 36 12 -19 37 -5 42 24 6 28 -9 36 -18 11 -12 -31 -21
-13 -31 63 -6 47 -11 63 -11 40z"/>
<path d="M9103 768 c-2 -40 -7 -76 -13 -82 -7 -7 -10 -4 -10 10 -1 18 -1 18
-11 1 -13 -22 -2 -40 22 -34 23 6 36 -10 20 -26 -15 -15 -14 -27 3 -27 8 0 16
10 18 22 4 30 38 37 38 9 0 -25 18 -28 26 -3 3 9 10 27 16 38 6 12 7 31 3 42
-3 12 -1 31 5 42 11 20 12 20 41 3 25 -15 31 -16 38 -4 15 23 1 41 -30 41 -28
0 -68 -20 -97 -47 -28 -27 -52 -4 -52 49 0 69 -15 40 -17 -34z"/>
<path d="M9126 488 c3 -35 6 -82 8 -105 3 -33 0 -40 -11 -36 -12 5 -14 1 -8
-18 5 -13 8 -33 9 -43 2 -29 25 -31 35 -3 19 50 69 55 90 11 9 -21 17 -25 44
-22 31 3 32 4 29 48 -3 53 -5 55 -29 41 -10 -6 -12 -11 -5 -11 16 0 15 -25 -2
-39 -20 -17 -43 13 -26 34 10 13 9 15 -9 15 -12 0 -31 5 -42 11 -17 9 -21 7
-26 -10 -7 -27 -23 -27 -23 0 0 11 -4 28 -9 37 -5 9 -5 41 -2 70 6 43 4 55
-10 68 -16 15 -17 12 -13 -48z"/>
<path d="M804 532 c-7 -4 -9 -23 -5 -52 4 -27 2 -60 -5 -82 -7 -20 -10 -39 -7
-42 4 -3 3 -6 -2 -6 -4 0 -13 7 -19 15 -9 13 -17 14 -44 4 -18 -6 -48 -9 -65
-6 l-32 5 -2 -54 -2 -54 37 3 c29 3 38 9 45 31 6 17 14 25 23 22 8 -3 14 -1
14 4 0 22 26 7 40 -23 8 -17 23 -33 33 -35 14 -3 17 4 17 33 0 21 6 38 14 41
19 7 64 -22 71 -47 16 -49 25 -9 24 111 0 74 -4 130 -10 130 -5 0 -9 -34 -9
-76 0 -56 -3 -75 -12 -71 -8 2 -12 18 -10 37 2 29 1 31 -13 20 -10 -8 -15 -25
-13 -41 2 -19 -4 -33 -17 -43 -39 -30 -43 -22 -38 84 3 55 4 100 2 100 -2 0
-9 -4 -15 -8z"/>
</g>
</svg>
